<?xml version="1.0"?>
<svg xmlns="http://www.w3.org/2000/svg" id="superb_old_combi" data-name="&#x421;&#x43B;&#x43E;&#x439; 1" viewBox="0 0 860 256">
<defs>
    <style type="text/css">
                        .svg_part {
                            fill: #f5f5f5;
                            fill-opacity: 0.1;
                            fill-rule: evenodd;
                            stroke: #ccc;
                            stroke-width: 1px;
                            stroke-linecap: butt;
                            stroke-linejoin: round;
                            stroke-opacity: 0.5;
                            cursor: pointer;
                        }
                        .svg_part:hover {
                            fill: #4ba82e;
                            fill-opacity: 0.2;
                        }
                        .svg_part:focus {
                            outline: 0;
                        }
                        .selected {
                            fill: #4ba82e;
                            fill-opacity: 0.4!important;
                        }
                        .active {
                            fill: #4ba82e;
                            fill-opacity: 0.65!important;
                        }
                        .blocked {
                            fill: none;
                            cursor: default;
                        }
                    </style>
</defs>
<title>superb_old_combi</title>
<path class="blocked" d="M0,0H859.93V256.09H0V0Z" transform="translate(0.5 0.5)"/>
<path data-partcode="fara_pravaya" class="svg_part" d="M40.89,126l1.33,2.47c-3.15,7.34-5.68,15-5.59,20-4.26-3.57-8.24-7.22-8.24-7.22a33.82,33.82,0,0,1,3.24-12.7,40.4,40.4,0,0,1,4.87-7.82C39.23,123.81,42.32,127.91,40.89,126Z" transform="translate(0.5 0.5)"/>
<path data-partcode="fara_levaya" class="svg_part" d="M221.51,133c-0.79,2.9-2,6-2,6a44.65,44.65,0,0,1-6.8,12,19,19,0,0,1-11.72,7.5c-6.78,1.4-28.69,4.13-28.69,4.13l-9.48-4.67s-20.45,1.33-21.61,1.48-1.61-.7-0.62-2.38S153,138.92,153,138.92l13.63-2.14c10.53-1.34,21.78-3.12,31.45-4.22s17.14-2.05,19.52-2.44S222.28,130.44,221.51,133Z" transform="translate(0.5 0.5)"/>
<path data-partcode="krylo_levoe_perednee" class="svg_part" d="M179.85,134.9c5.86-1,8.6-1.24,18.27-2.35s17.14-2.05,19.52-2.44,4.64,0.32,3.87,2.89c-0.79,2.9-2,6-2,6,5.18,1.75,17.75,5.57,27.48,9.07,2.69-3.87,5.86-8.16,10.92-10.6s10.71-3.27,15.85,1,8.93,12.58,9.53,24,0.43,14.29-.39,20.92a8.1,8.1,0,0,0,5.05-3.19,415.71,415.71,0,0,0,.55-53.5c-1-16.48-2.37-19-4.45-22.06S280,99,279,96.46a6.87,6.87,0,0,1-.11-4.68l-11-7.39c-2.77,1.61-3.57,2.33-6.13,3.13,1.07,5.09.77,9.27-.66,11.83-1.14,2-4.87,3.73-10.77,5.5-11.61,3.48-21.85,6.48-34.62,11.21C202.53,121,188.48,125.69,179.85,134.9Z" transform="translate(0.5 0.5)"/>
<path data-partcode="dver_perednyaya_levaya" class="svg_part" d="M288,180.14a415.71,415.71,0,0,0,.55-53.5c-1-16.48-2.37-19-4.45-22.06S280,99,279,96.46a6.73,6.73,0,0,1-.4-1.54A22.32,22.32,0,0,0,283,93.66a1.38,1.38,0,0,0,1.81,1.67c2.18-.39,4-0.78,5.39-1.17s1.93-2.16,1.94-2.8c5.83-1.25,9.58-2.27,9.58-2.27,14,0.3,24.9.41,25.55-6.54,10.4-2.71,19.47-4.78,19.47-4.78,3.66,4.94,6.42,9.71,6.69,17.59s-1.81,38.94-1.74,41c0.12,3.52,1.51,3.47,1.16,6.6s-1.93,12.5-1.93,12.5S293.39,177.92,288,180.14Z" transform="translate(0.5 0.5)"/>
<path data-partcode="dver_zadnyaya_levaya" class="svg_part" d="M387.6,66.82s3.58,2.35,4.72,4.26,3.33,5.17,3.33,9.05a117.59,117.59,0,0,1-3,23.79A236.76,236.76,0,0,1,384,133.38c-2.26,5.73-4,9.42-7,11.38-8.31,4.37-26,10.69-26,10.69s1.58-9.37,1.93-12.5-1-3.08-1.16-6.6c-0.07-2,2-33.1,1.74-41s-3-12.66-6.69-17.59C346.79,77.77,374.3,70.36,387.6,66.82Z" transform="translate(0.5 0.5)"/>
<path data-partcode="krylo_levoe_zadnee" class="svg_part" d="M387.64,67.07c1,0.81,4.13,3.1,4.67,4,1.14,1.91,3.33,5.17,3.33,9.05a117.59,117.59,0,0,1-3,23.79A236.76,236.76,0,0,1,384,133.38c4.37-7.65,7.81-11.8,9.48-17.14s4-9.72,6.54-12.32,4.87-2.56,6.34-2.05,4,4.1,5,10.65a164.53,164.53,0,0,1,1.81,20.87c4.25-4.58,6.06-8.23,7.6-10.16s2.47-5.56,2.77-8.87,0.74-6.8.83-8.65a7,7,0,0,0-1.61-5.45c-0.05-9-.19-11.85-0.19-11.85-0.63-.69-0.93-2.28-1.41-5.21-0.52-3.2-1.26-5.69-1.83-9.86-0.32-2.36-.42-3.34.54-4.5a23,23,0,0,0-3.79-4.92,28.42,28.42,0,0,1-3.8-4.66,42.33,42.33,0,0,0-2.71-4c-1.2.43-3.48,1.08-3.48,1.08a21.06,21.06,0,0,0,1.67,3c0.75,1.13.1,2.48-1.67,2.95C400.85,63.67,394.07,65.5,387.64,67.07Z" transform="translate(0.5 0.5)"/>
<path data-partcode="krysha" class="svg_part" d="M384.67,35.14c-8.82-4.33-37.66-5.07-50.8-4.06S314.46,33.88,304,40.4c-12.57-1.6-48.73-4.35-73.55-5.24s-40.24.27-57.2,1.55c4.78-3.06,10.74-5.45,20.31-7.6a44.26,44.26,0,0,1,20.66-9.6,219.26,219.26,0,0,1,40.86-3c15.46,0.45,21.48,1.54,27.16,4H283c9.08-.05,18.2,0,26.87.19a45.57,45.57,0,0,1,12-3c10.44-1.25,28.27-1.83,39,.13,10,1.83,14.79,4.85,18.81,10.5a76.44,76.44,0,0,1,9,3.43S385.95,34.21,384.67,35.14ZM256.5,18.65a217.31,217.31,0,0,0-41.92,3.14c-6.37,1.12-10.74,3.28-11.33,5.41,1.39-.24,2.84-0.48,4.36-0.71a516.87,516.87,0,0,1,56.28-5.58C263.23,19.65,262.06,18.83,256.5,18.65Zm68.38,2.14-1.66.18c12.71,0.43,23.55,1.07,30.43,1.82l-1.15-2.87A201.2,201.2,0,0,0,324.89,20.79Zm33.73-.38,1.1,3.21c3.61,0.58,7.28,1.31,10.83,2.16C368.48,23.06,365.21,21.25,358.61,20.41Z" transform="translate(0.5 0.5)"/>
<path data-partcode="levoe_zadnee_steklo" class="svg_part" d="M338,33l12.36,43.8c15.25-4.19,20.06-5.56,24.58-6.66a321.11,321.11,0,0,0-11.57-37.1A220.47,220.47,0,0,0,338,33Zm34,0.74c3.82,8.71,9.43,20.31,14,33.33,0,0-4.84,1.57-8.56,2.32,0,0-7.94-27.31-11.07-36.18Zm19.42,7.81c3.75,3.48,10.94,11.82,12.86,14.93,1.7,2.75,3,5.12,1.6,5.53s-8.33,2.53-15.68,4.12a269.45,269.45,0,0,0-14.77-32A30.27,30.27,0,0,1,391.41,41.59Z" transform="translate(0.5 0.5)"/>
<path data-partcode="stoyka_levaya" class="svg_part" d="M267.81,84.48c2-1.72,3.21-3.68,5.56-8.74s6.21-12.63,9.39-18.67S291.33,42.39,294,39.26c4.91,0.48,10.21,1.16,10.21,1.16-6.45,7.37-15.84,19.22-25.32,51.26C273.21,88,267.81,84.48,267.81,84.48Z" transform="translate(0.5 0.5)"/>
<path data-partcode="zerkalo_levoe,korpus_zerkala_levogo" class="svg_part" d="M327.32,82.55c-0.65,6.95-11.53,6.84-25.55,6.54,0,0-3.75,1-9.58,2.27,0,0.64-.57,2.42-1.94,2.8s-3.21.78-5.39,1.17A1.38,1.38,0,0,1,283,93.66a7.1,7.1,0,0,1-3.15,1.05c2.08-7.93,6.62-20.31,9-24.93,0.75,5.35,1.67,11.8,1.67,11.8s0.33,1.34,2.79.62c2.45-6.2,4-9.24,6.37-10.95s4-1.7,7.62-1.7a48.26,48.26,0,0,1,11.45,1.86,10,10,0,0,1,6.07,5.12A36.64,36.64,0,0,1,327.32,82.55Z" transform="translate(0.5 0.5)"/>
<path data-partcode="levoe_perednee_steklo" class="svg_part" d="M341.54,79c-3.59.9-7.16,1.81-14.22,3.6a36.64,36.64,0,0,0-2.46-6,10,10,0,0,0-6.07-5.12,48.26,48.26,0,0,0-11.45-1.86c-3.63,0-5.26,0-7.62,1.7S295.79,76,293.34,82.2c-2.46.72-2.79-.62-2.79-0.62s-0.92-6.44-1.67-11.8a182.3,182.3,0,0,1,8.44-16.62c2.77-5.4,8.36-11.92,13-14.19,6-2.92,10.51-4.42,19.34-5.3C333.07,45.06,338.65,65,341.54,79Z" transform="translate(0.5 0.5)"/>
<path data-partcode="lobovoe_steklo" class="svg_part" d="M292.59,39.27C273,37.64,251,35.38,222.2,35.11s-35.18.29-45.59,1.37c-12,8.45-38.72,29.8-43.72,34.95s-6.48,7.13-6.81,7.9,0,1.52,2,1.91,11.63,1.76,21,2.29,25.74,1.07,46.35,2.08,50.12,1.53,55.69,1.53,10.55-.47,13.76-2.2,5-5.38,7.55-10.44S284.09,50.63,292.59,39.27Z" transform="translate(0.5 0.5)"/>
<path data-partcode="reshetka_radiatora" class="svg_part" d="M53.08,129l-9-.5a129.35,129.35,0,0,0-4,12.76A30.7,30.7,0,0,0,40,152.92a8.7,8.7,0,0,0,5.57,5.93A222.74,222.74,0,0,0,75,163.93c14.12,1.52,39.78,2.76,41.95,2.79a10.09,10.09,0,0,0,5.47-1.28c1.84-1,3.21-1.91,4.94-2.95a13.15,13.15,0,0,0,3.9-3.39c1.13-1.43,14.11-19.73,14.11-19.73L140.82,137c-2.26-1-5.13-1.14-8.62-1.35s-26.37-1.35-29.73-1.35-7.66.18-11.38,2.25a50.22,50.22,0,0,0-6.37,4.35c-1.13,1-1.76,1.64-3.28,1.64a26.83,26.83,0,0,1-4.44-.27c-1.41-.24-2.42-0.66-3.55-2.77s-1.63-3.56-3.33-5.13a13.27,13.27,0,0,0-5.68-3.15A81.87,81.87,0,0,0,53.08,129Z" transform="translate(0.5 0.5)"/>
<path data-partcode="kapot" class="svg_part" d="M44.12,128.48l9,0.5a81.87,81.87,0,0,1,11.35,2.27,13.27,13.27,0,0,1,5.68,3.15c1.7,1.58,2.23,3.08,3.33,5.13s2.14,2.53,3.55,2.77a26.83,26.83,0,0,0,4.44.27c1.52,0,2.15-.66,3.28-1.64a50.22,50.22,0,0,1,6.37-4.35c3.73-2.07,8-2.25,11.38-2.25s26.25,1.14,29.73,1.35,6.36,0.34,8.62,1.35l4.57,2.36,7.5-.5c16.14-2.32,27-3.94,27-3.94,7.76-8.29,20.42-13,29.46-16.53s25-8.88,35.5-11.89,14.1-4.34,15.74-6.44,2.67-5.84,1.23-12.45c-4.64,1.45-9.32,2-17.72,1.83s-36.68-1-62.07-2.14-55.35-3.24-60.51-4.16-3.78-3-3.78-3c-12.34,5.14-28.62,13-41.85,18.8S40.74,116.17,39,117.39a12.53,12.53,0,0,0-2.95,3.39c2.35,1.76,5,5.86,6.07,7.76A16.77,16.77,0,0,0,44.12,128.48Z" transform="translate(0.5 0.5)"/>
<path data-partcode="ptf_levaya" class="svg_part" d="M152.94,194.58c-0.45-.92-0.18-1.76,1.82-1.76s34.62-.89,36.65-0.89,4-.36,5.39,1.64,3.6,5.26,4.23,6.28,1,2.08-1,2.47-11.63,1.63-16.77,1.93-18.31,1.13-20.13,1.13-2,.36-3.51-1.67S153.56,195.87,152.94,194.58Z" transform="translate(0.5 0.5)"/>
<path data-partcode="ptf_pravaya" class="svg_part" d="M28.16,184.21a25.7,25.7,0,0,0,2.06,2.62c0.63,0.75,1.34,1,1.64-.43s0.65-5.76.77-7.38a2.61,2.61,0,0,0-1.6-2.77,36.41,36.41,0,0,1-3.93-2.62A102.76,102.76,0,0,0,28.16,184.21Z" transform="translate(0.5 0.5)"/>
<path data-partcode="kolesnyy_disk_peredniy_levyy" class="svg_part" d="M263,158.49c8.85,0.92,14.65,16.5,12.95,34.81s-10.26,32.4-19.12,31.49-14.65-16.5-12.95-34.81S254.1,157.57,263,158.49Z" transform="translate(0.5 0.5)"/>
<path data-partcode="kolesnyy_disk_zadniy_levyy" class="svg_part" d="M403.39,117.29c4.9,0.67,8.11,12.07,7.17,25.46s-5.69,23.7-10.59,23-8.11-12.07-7.17-25.46S398.49,116.62,403.39,117.29Z" transform="translate(0.5 0.5)"/>
<path data-partcode="bamper_zadniy" class="svg_part" d="M671.44,168.89c-2.94,11-4.21,16.5-5.79,22.8s-6,10-13.42,11-23.92,2.52-46.61,3.38c0,0-7-7.24-9.23-9.35s-5.54-2.79-10.69-3.27-36.14-2.52-64.14-5.47a708.83,708.83,0,0,1-73.92-11.76s-1.39-1.36-2.56-2.65c-0.93-1-2-1.94-2.27-3.37-0.11-.67-0.68-3.9-0.95-6.88s-1.28-11.64-1.28-13.16a7.5,7.5,0,0,1,1.55-4.67c0.86-1.17,1.92-7.87,2-9.87,0.06-1,.07-2.09.08-3.74,4.19,2,6.36,2.41,7,2.35,0.63,4.43,2.38,11.14,3.45,13.4s2,5.2,7.73,6.13,31.23,5.08,50.5,7,53.38,4.2,56.72,4.32,5.71-.53,7.17-1.94,3.88-4.58,6.93-15.47c7.56,0,29-.66,39.11-8.65,0.62,0.73,6.12,7.42,10.35,11.48,3.65,3.5,8.4,3.57,11.41,3.18s26.45-2.44,33.2-3.12A119.51,119.51,0,0,0,671.44,168.89Z" transform="translate(0.5 0.5)"/>
<path data-partcode="kryshka_bagazhnika" class="svg_part" d="M451.27,134.22c0.63,4.43,2.38,11.14,3.45,13.4s2,5.2,7.73,6.13,31.23,5.08,50.5,7,53.38,4.2,56.72,4.32,5.71-.53,7.17-1.94,3.88-4.58,6.93-15.47c2.24-11.23,3.59-23.24,5.06-30.67,1-5.12,4.9-19.18,6.72-23.22-10.15-.75-59.4-3.94-79.58-5s-59.39-3-59.39-3c-4,3.81-7,7.89-7.62,9.28,2.08,0.07,3.12.8,2.82,3.67s-1,10-1,12.88C450.67,117,451.15,129.44,451.27,134.22Z" transform="translate(0.5 0.5)"/>
<path data-partcode="fonar_levyy" class="svg_part" d="M444.07,132c3.06,1.07,4.29,1.36,7.2,2.17-0.12-4.77-.6-17.22-0.55-22.59,0-2.92.75-10,1-12.88S451,95.15,449,95.08a78.83,78.83,0,0,0-4.45,19.79A114.35,114.35,0,0,0,444.07,132Z" transform="translate(0.5 0.5)"/>
<path data-partcode="fonar_pravyy" class="svg_part" d="M583.69,147.51c13.35-.09,29.45-1.51,38.88-8.41s10.55-23.75,10.64-27.05-0.57-5.75-5.48-6S592,104.41,592,104.41a174.17,174.17,0,0,0-4.58,20.91C586.22,133.42,583.69,147.51,583.69,147.51Z" transform="translate(0.5 0.5)"/>
<path data-partcode="krylo_pravoe_zadnee" class="svg_part" d="M715.08,174.05s0.72-3.09.54-10.29-0.34-15.28-4.87-22.63-9.54-9-13.74-8.67-7.49,3.24-11.3,7.48a92.06,92.06,0,0,0-7.89,10.65c-6.75.69-27.68,2.57-30.68,3s-8.91,1.56-13-2.44c-3.36-3.29-11.19-10.89-11.19-10.89a5.77,5.77,0,0,1-.35-1.16c9.39-6.92,10.51-23.72,10.6-27s-0.57-5.75-5.48-6-34.53-1.56-35.69-1.61a99.81,99.81,0,0,1,3.5-10.61h-0.08c1.25-2.08,2.4-4.07,2.4-4.07l34.85-7.91c-0.24,2.41,1.38,5.05,6.06,5.92a68.39,68.39,0,0,0,20.42.39c8.07-.88,24.32-2.79,27.54-3.2a76,76,0,0,0,6.84,7.47c2.83,2.86,6.19,6.16,8,9.95A278.35,278.35,0,0,1,714.38,130c6.84,16.92,7.35,26.47,8.1,31.65s1.1,7.16,4.17,8.65ZM591,108.17l0.42-1.53-0.4,1.53h0Z" transform="translate(0.5 0.5)"/>
<path data-partcode="dver_zadnyaya_pravaya" class="svg_part" d="M760.74,159.13l-34.08,11.14c-3.07-1.49-3.43-3.47-4.17-8.65s-1.26-14.73-8.1-31.65a278.35,278.35,0,0,0-12.77-27.64c-1.85-3.79-5.2-7.09-8-9.95a79.77,79.77,0,0,1-6.7-7.41l67.76-5.61c6.15,9,9.67,15.93,10.74,25.8s-0.38,25.24-.59,29.19a27.62,27.62,0,0,0,.3,7c0.3,2.18-.45,4-1.36,7.44C762.59,153.08,762,155,760.74,159.13Z" transform="translate(0.5 0.5)"/>
<path data-partcode="krylo_pravoe_perednee" class="svg_part" d="M811.66,144.1l2.17,0.39c2.23-10.5,4.1-19.26,6.57-27.33s8.23-17.16,10.49-18.52,4.58-.06,5.8,1.28,2.4,6.69,2.76,11.42,0.39,5.68.39,5.68c1,1.25,1.19,2.17,1.22,4.14s-0.06,6.29-.23,7.39a7.64,7.64,0,0,1-1.46,2.65c-0.09,3.21-.12,6.21-0.12,6.21,2-5.83,4-10.54,3.87-19.95s-2.23-21.12-4-26.47-4.58-8-7.5-9.34-14.19-5-17-7.35a41.29,41.29,0,0,1-10.46,1.43c2.53,2.95,4,4.82,6.11,6.17a9.77,9.77,0,0,1,4.17,6.31,178,178,0,0,1,1.79,22.38,106.91,106.91,0,0,1-1.54,20.24C813.68,136.08,812,143,811.66,144.1Z" transform="translate(0.5 0.5)"/>
<path data-partcode="dver_perednyaya_pravaya" class="svg_part" d="M789,77.12l-34.37,2.24c6.15,9,9.67,15.93,10.74,25.8s-0.38,25.24-.59,29.19a27.62,27.62,0,0,0,.3,7c0.3,2.18-.45,4-1.36,7.44-1.13,4.23-1.73,6.14-3,10.29,0,0,44.49-14.75,46.55-14.75l3.3,0c0.75,0,1.39-.5,1.84-2.47a162.7,162.7,0,0,0,3.6-21.36c0.71-9-.45-23.27-1.13-29.46s-1.69-7.2-4.46-9.13a40.63,40.63,0,0,1-6.19-6.13l-7.08.54c-0.45,1.76-1.31,2.27-2,2.36s-2.88.36-3.75,0.36A2.89,2.89,0,0,1,789,77.12Z" transform="translate(0.5 0.5)"/>
<path data-partcode="krysha" class="svg_part" d="M741.47,32c-13-1.16-23.72.36-39.44,2.11a282.51,282.51,0,0,0-36.19,6.5,40.21,40.21,0,0,0-8.89,3.47l-27.5,2.58L627,46.35c-9.16-1.06-49.28-4.9-69.71-5.4a360,360,0,0,0-52.32,2.56c2.51-4.88,11.93-8.07,24-10.55,5.57-5.48,11.94-8.15,20.78-10.45,6.84-1.78,32.48-5.11,50.5-5.35,16.27-.22,31.59,1.16,38.29,4.46l6.17-.17c9.17-.23,16.35-0.33,22.43-0.33,5.46-.79,11.3-1.3,17.41-1.72,20.83-1.43,37.8-.6,45.27.3,9.13,1.1,16.67,7.17,20.37,11.45a90.57,90.57,0,0,1,15.75,6.65C760.65,35.53,754.43,33.14,741.47,32Zm-182.5-8c-10.45,2-16.62,3.37-20.51,7.27,7.9-1.32,16.37-2.48,24.46-3.68l2.72-4.65C563.19,23.21,560.93,23.56,559,23.93ZM605.66,20c-10.53.2-23,1-33.45,2.07L570,26.53c16.5-2.17,35-3.62,56.78-4.5C623.11,20.61,618.48,19.77,605.66,20ZM723,22c-5.59-.63-15.89-0.32-26.09.26L708.28,23A173.15,173.15,0,0,1,738,27.67C734.7,23.85,731.86,22.95,723,22Z" transform="translate(0.5 0.5)"/>
<path data-partcode="pravoe_zadnee_steklo" class="svg_part" d="M713.62,82.54C708.54,67.85,697.54,42,696,37.81a239.63,239.63,0,0,1,33.41-2.92c4.92,9.75,16.1,37.06,18.77,45C729.6,81.48,713.62,82.54,713.62,82.54ZM686.81,85c-0.08-9.24-2-31.17-4-45.23,0,0,3.45-.71,9.67-1.52,1.23,2.93,12,28.71,17.76,44.68C710.19,82.89,698.55,83.87,686.81,85Zm-30.22,3.25c-7.54.66-11.74,0.36-15.61-.62s-4.94-3-4.7-5.75c0.14-1.64,1.88-6.12,4.92-13a61.09,61.09,0,0,1,13.12-18.59c4.88-4.55,13.46-8.39,25.41-10,2.92,22.64,4.46,44.89,4.46,44.89S665.4,87.43,656.59,88.21Z" transform="translate(0.5 0.5)"/>
<path data-partcode="pravoe_perednee_steklo" class="svg_part" d="M757.73,79S744.24,47.5,737.22,34.61c13.82,0.73,23,1.46,35.43,9.94s18.42,16.8,18.42,16.8l2.5,15.36Z" transform="translate(0.5 0.5)"/>
<path data-partcode="zerkalo_pravoe,korpus_zerkala_pravogo" class="svg_part" d="M788.92,77a2.52,2.52,0,0,0,2.8,1.91,18.66,18.66,0,0,0,3.63-.33,2,2,0,0,0,1.73-2c5.72-.54,11.1-1,15.05-1.46s5.06-3.45,4.52-5.83A12.44,12.44,0,0,0,811,61.6a20.16,20.16,0,0,0-9.43-1.82c-2,.18-2.65.51-3.1,2.44s-0.92,5.72-.92,5.72L791.09,61l2.53,15.64Z" transform="translate(0.5 0.5)"/>
<path data-partcode="zadnee_steklo" class="svg_part" d="M595.76,93.61s-58.16-3.6-75-4.49S464.95,86,457.36,86.21c16.14-20.07,36.23-34.68,47.52-42.53,23.69-2.94,30.12-2.51,50.52-2.3,18,0.18,32.17,1.05,43.76,2,15.27,1.31,27.34,3,27.34,3S616.95,59.8,608,73.1C603.23,80.17,600.75,84.79,595.76,93.61Z" transform="translate(0.5 0.5)"/>
<path data-partcode="kolesnyy_disk_zadniy_pravyy" class="svg_part" d="M699.52,153.41c8.45,1.11,13.6,16.38,11.51,34.1s-10.65,31.18-19.1,30.07-13.6-16.38-11.51-34.1S691.07,152.3,699.52,153.41Z" transform="translate(0.5 0.5)"/>
<path data-partcode="kolesnyy_disk_peredniy_pravyy" class="svg_part" d="M831.43,115.33c4.51,0.7,7.33,11.61,6.29,24.37s-5.55,22.53-10.06,21.83-7.33-11.61-6.29-24.37S826.92,114.63,831.43,115.33Z" transform="translate(0.5 0.5)"/>
<path data-partcode="bamper_peredniy" class="svg_part" class="svg_part" d="M219.56,139a44.65,44.65,0,0,1-6.8,12,19,19,0,0,1-11.72,7.5c-6.78,1.4-28.69,4.13-28.69,4.13l-9.48-4.67s-20.45,1.33-21.61,1.48-1.61-.7-0.62-2.38S153,138.92,153,138.92l-7.65.45s-13,18.3-14.11,19.73a13.15,13.15,0,0,1-3.9,3.39c-1.73,1-3.1,2-4.94,2.95a10.09,10.09,0,0,1-5.47,1.28c-2.17,0-27.83-1.27-41.95-2.79a222.73,222.73,0,0,1-29.43-5.09A8.7,8.7,0,0,1,40,152.92a30.7,30.7,0,0,1,.15-11.69,129.35,129.35,0,0,1,4-12.76H42.21c-3.15,7.34-5.68,15-5.59,20-4.26-3.57-8.24-7.22-8.24-7.22-3.81,4.79-4.2,11-4.73,14.81s-0.5,12.4-.5,12.4a48.5,48.5,0,0,0,3.74,3.42c0.09,2.43.4,5.47,0.68,7.91-0.19-1.76-.37-3.83-0.49-6.12A36.41,36.41,0,0,0,31,176.25a2.61,2.61,0,0,1,1.6,2.77c-0.12,1.61-.47,5.91-0.77,7.38s-1,1.18-1.64.43a25.7,25.7,0,0,1-2.06-2.62c-0.07-.43-0.15-1-0.23-1.58,0.12,0.89.19,1.45,0.19,1.45-2.53,2.79-2.69,5.37-1.51,7.48a41.16,41.16,0,0,0,4.14,5.62,9.94,9.94,0,0,0,5.4,3c2.53,0.53,23.25,5.32,41.21,7.67s46.31,5,55,5.88,12.39,1.58,14.83,2.5,6.07,1.48,16.24.86,48.09-2.58,54.37-3.32,11-.76,12.35-8.47,2.61-18.32,5.56-30.61,7.58-19.9,11.3-26.77C235.71,144.34,219.56,139,219.56,139ZM200,202.32c-2,.39-11.63,1.63-16.77,1.93s-18.31,1.13-20.13,1.13-2,.36-3.51-1.67-6-7.85-6.66-9.13c-0.45-.92-0.18-1.76,1.82-1.76s34.62-.89,36.65-0.89,4-.36,5.39,1.64,3.6,5.26,4.23,6.28S202,201.93,200,202.32Z" transform="translate(0.5 0.5)"/>
</svg>
