<?xml version="1.0" encoding="utf-8"?>
<!-- Generator: Adobe Illustrator 16.0.0, SVG Export Plug-In . SVG Version: 6.00 Build 0)  -->
<!DOCTYPE svg PUBLIC "-//W3C//DTD SVG 1.1//EN" "http://www.w3.org/Graphics/SVG/1.1/DTD/svg11.dtd">
<svg version="1.1" id="fabia" xmlns="http://www.w3.org/2000/svg" xmlns:xlink="http://www.w3.org/1999/xlink" x="0px" y="0px"
	 width="512px" height="512px" viewBox="0 0 512 512" enable-background="new 0 0 512 512" xml:space="preserve">
<title>fabia</title>
<rect x="0.298" y="190.809" fill="none" width="512" height="130.977"/>
<path d="M88.12,198.681c-14.966,9.787-36.229,31.009-36.137,31.67c0.092,0.661,89.607,3.838,90.137,3.512
	c0.526-0.327,19.493-34.573,19.493-35.182C161.612,198.072,92.341,195.92,88.12,198.681z"/>
<path fill="#4BA82E" fill-opacity="0.3" d="M51.982,230.351c-0.009-0.059,0.161-0.291,0.48-0.661
	c-5.845,2.056-22.999,8.584-41.408,20.232c-1.381,0.875,0,6.963,0,6.963l19.002,2.618c0,0,1.462,4.141,4.547,4.387
	c3.085,0.243,6.659-3.491,6.659-3.491l32.707-0.49c0,0,6.944-6.759,35.629-9.5c0,0,19.002-3.979,29.6-11.327l2.803-4.629l0.118-0.59
	C136.166,233.976,52.071,230.989,51.982,230.351z"/>
<path d="M10.44,269.291c0.27-0.039,0.406-8.448,0.461-13.149c0.001,0.004,0.001,0.007,0.002,0.011
	c-0.292-1.521-0.842-4.968-0.065-6.022l-0.398-0.727l-4.233,3.82l-2.083,5.655l-0.257,5.66
	C4.232,264.539,7.118,269.746,10.44,269.291z"/>
<path d="M159.176,291.824c0,0-0.889-41.138-3.655-48.237c-2.766-7.099-3.654-9.377-3.654-9.377l-9.748-0.347l-0.118,0.59
	l-2.803,4.629c-10.597,7.348-29.6,11.327-29.6,11.327l7.065,2.559l-5.017,10.884c2.937,0.266,15.673,7.388,15.673,7.388
	s3.839-10.593,16.386-8.646c12.547,1.944,11.572,29.96,11.572,29.96L159.176,291.824z"/>
<path d="M65.991,272.212c-0.081,0.627,22.291,3.533,45.191-8.311c0.109-0.056,0.287-0.065,0.513-0.042
	c-0.016,0-0.034-0.004-0.048-0.007l5.017-10.884l-7.065-2.559c-22.889,2.187-31.929,6.929-34.65,8.759
	C71.621,262.157,66.613,267.38,65.991,272.212z"/>
<path d="M170.22,191.697c-73.883-1.407-81.74,5.912-82.563,7.291c0.155-0.103,0.31-0.206,0.463-0.306
	c4.067-2.659,68.474-0.762,73.207-0.073c20.136-3.808,61.676,0.063,65.332,2.225C226.658,200.833,227.754,192.792,170.22,191.697z"
	/>
<path d="M171.57,219.925c-8.916-0.363-10.567,4.174-10.567,4.174l-1.6-6.409l-7.536,16.52l8.587-0.347l1.462-1.785l6.942,0.73
	c0,0,12.884,1.228,12.913-5.757C181.791,222.148,177.377,220.164,171.57,219.925z"/>
<path d="M250.654,243.79c-1.979-9.031-5.358-12.141-5.968-13.481c-0.608-1.338,0.895-3.369,0.895-3.369l-4.021-3.897
	c-3.736-8.284-14.902-22.21-14.902-22.21l-0.919-0.364c-1.221-0.374-3.702-0.809-2.726-0.628l11.685,25.393l3.898,5.037
	c0.957,6.428-3.116,21.59-7.269,33.706c3.144-4.74,7.29-9.625,11.167-9.915c4.037-0.302,5.969,4.915,5.969,4.915
	S250.734,244.157,250.654,243.79z"/>
<ellipse cx="138.827" cy="294.651" rx="10.875" ry="19.052"/>
<path d="M248.77,280.308c0,9.018-3.698,16.327-8.26,16.327s-8.261-7.31-8.261-16.327c0-9.021,3.699-16.331,8.261-16.331
	S248.77,271.287,248.77,280.308z"/>
<path d="M80.529,287.134l-2.902,11.535c0,0,28.875,0.223,34.233-13.171L80.529,287.134z"/>
<polygon points="5.364,282.447 4.57,282.146 3.727,287.854 8.886,293.659 "/>
<path d="M111.182,263.901c-22.9,11.844-45.272,8.938-45.191,8.311c0.623-4.833,5.633-10.059,8.962-13.048
	c-0.697,0.467-0.984,0.745-0.984,0.745l-5.602,0.083c-5.476,9.92-12.609,14.049-12.609,14.049s-13.865,0.171-23.997-0.366
	c-9.948-0.528-18.394-3.045-18.394-3.045l0.838-13.311l-3.152-0.434c0,0-0.064-0.286-0.153-0.744
	c-0.055,4.701-0.191,13.11-0.461,13.149c-3.322,0.455-6.208-4.752-6.573-4.752c-0.365,0-3.341,10.291-1.583,14.739
	c0.956,2.417,1.827,2.192,1.827,2.192s-2.314,10.354,0,14.495c2.315,4.142,80.639,6.214,80.639,6.214s2.558,1.462,5.725,2.438
	c3.167,0.972,27.286-1.098,27.286-1.098s3.651-24.362,9.56-32.279C127.32,271.24,112.748,263.091,111.182,263.901z M3.727,287.854
	l0.843-5.707l0.794,0.301l3.522,11.212L3.727,287.854z M77.627,298.669l2.902-11.535l31.332-1.636
	C106.502,298.892,77.627,298.669,77.627,298.669z"/>
<g>
	<path d="M171.57,219.925c5.807,0.239,10.221,2.223,10.202,7.126c-0.006,1.306-0.46,2.325-1.196,3.118
		c7.472-0.763,14.518-1.496,18.714-1.936l-8.121-31.131c-7.842-0.215-15.823-0.108-22.613,0.528l-9.152,20.06l1.6,6.409
		C161.003,224.099,162.654,219.562,171.57,219.925z"/>
	<path d="M159.607,288.549l-0.622-3.508c0.132,4.105,0.191,6.783,0.191,6.783l1.501-0.243L159.607,288.549z"/>
</g>
<path d="M201.728,281.349c0,0,2.129-36.624,0-46.451l-2.437-6.658l-0.002-0.007c-4.196,0.44-11.242,1.173-18.714,1.936
	c-3.199,3.45-11.717,2.639-11.717,2.639l-6.942-0.73l-1.462,1.785l-8.587,0.347c0,0,0.888,2.279,3.654,9.377
	c2.062,5.289,3.079,29.465,3.464,41.454l0.622,3.508l1.07,3.032l41.537-6.74L201.728,281.349z"/>
<g>
	<path d="M191.168,197.102c-0.043-0.001-0.089-0.003-0.133-0.003C191.08,197.099,191.125,197.102,191.168,197.102L191.168,197.102z"
		/>
	<path d="M191.035,197.099c-0.437-0.013-0.875-0.023-1.312-0.031C190.161,197.074,190.598,197.086,191.035,197.099z"/>
	<path d="M223.567,224.843l4.316-5.062l-6.848-18.949l0.166-1.302c-6.628-1.054-18.169-2.108-30.032-2.429l8.12,31.131
		L223.567,224.843z"/>
</g>
<path d="M238.596,230.271l-3.898-5.037l-11.685-25.393c-0.552-0.101-1.16-0.206-1.812-0.311l-0.166,1.302l6.848,18.949l-4.316,5.062
	l-24.278,3.39l0.002,0.007l2.437,6.658c2.129,9.827,0,46.451,0,46.451l0.487,3.492c0,0,19.369-3.327,21.602-3.652
	C226.049,280.862,240.301,241.721,238.596,230.271z"/>
<path d="M294.993,198.617l-0.245,3.491c-11.854,11.206-19.812,23.628-19.812,23.628s-5.846,4.245-6.739,5.707
	c-0.895,1.461-0.567,17.351,0.406,25.635c0.974,8.283,5.277,8.12,5.277,8.12s15.366,1.382,25.902,2.03
	c10.555,0.649,34.67,1.218,34.67,1.218s2.852-1.997,3.816-8.445c0.965-6.448,2.029-13.56,2.029-13.56s6.72-12.238,17.113-14.998
	c0,0,10.752-28.726,8.789-34.613C364.984,193.176,298.565,193.663,294.993,198.617z"/>
<path d="M363.116,254.399c-4.695,4.362-19.788,5.579-24.894,5.871c-1.005,6.229-3.77,8.177-3.77,8.177s-24.115-0.568-34.67-1.218
	c-10.536-0.648-25.902-2.03-25.902-2.03s-4.304,0.163-5.277-8.12c-0.025-0.219-0.052-0.447-0.075-0.675
	c-0.75,0.235-1.547,0.358-2.281,0.215c-2.356-0.46-4.79-2.951-4.79-2.951l0.081,9.663l-1.868,4.304c0,0-0.647,7.958,1.706,14.128
	c2.353,6.17,8.321,10.944,9.58,11.367c11.369,3.817,85.746,7.716,89.278,5.522s6.21-6.536,6.21-6.536
	c4.63-17.661,11.369-22.249,11.369-22.249C378.422,267.878,363.116,254.399,363.116,254.399z"/>
<path d="M266.247,256.618c0.734,0.144,1.531,0.021,2.281-0.215c-0.901-8.314-1.191-23.081-0.367-24.877l-0.488-0.721l-2.296,2.876
	l-2.381,6.945l-1.449,13.131C262,254.2,264.152,256.209,266.247,256.618z"/>
<path d="M384.731,193.055c-15.374-0.559-28.762-0.517-40.077-0.167l-1.369-1.695h-2.834l-0.093,1.846
	c-19.384,0.767-32.03,2.411-37.44,3.242c18.469-2.653,62.296-2.413,63.283,0.549c0.344,1.033,0.297,2.768-0.016,4.926
	c0.003,0,10.254-3.951,78.21-1.028C444.396,200.728,439.989,195.064,384.731,193.055z"/>
<path d="M386.664,235.806c0,0-1.95-1.707-3.654-5.604c-1.706-3.897-3.328-24.358-6.004-29.879l0,0
	c-8.693,0.615-10.817,1.433-10.82,1.433c-1.462,10.152-8.773,29.687-8.773,29.687l15.043,4.361l-9.339,18.594
	c0,0,15.306,13.479,14.697,15.467c0,0,2.761-4.505,12.261-6.129c9.5-1.626,14.046,14.777,14.046,14.777l1.177,12.225l4.426-0.37
	l-6.657-22.652L386.664,235.806z"/>
<path d="M372.455,235.805l-15.043-4.361c-10.394,2.76-17.113,14.998-17.113,14.998s-1.064,7.112-2.029,13.56
	c-0.016,0.101-0.035,0.191-0.05,0.29c0-0.008,0.002-0.014,0.003-0.021c5.105-0.292,20.198-1.509,24.894-5.871L372.455,235.805z"/>
<path d="M472.325,222.113c-2.952-0.214-4.048,1.796-4.048,1.796l-4.6-2.466l2.649,11.844h3.015l0.639-0.762c0,0,3.581,0.247,5.604,0
	c2.01-0.243,4.842,0,4.567-4.566C479.987,225.221,475.279,222.326,472.325,222.113z"/>
<path d="M507.402,254.967c-2.841-4.547-4.546-8.932-4.546-8.932c-9.907-4.872-24.196-13.316-24.196-13.316s-0.59,1.035-1.624,1.3
	c-1.036,0.262-1.559-0.113-1.559-0.113l0.34,0.437l4.629,7.957c0,0,3.816,18.269-1.788,42.304l3.057,0.163
	c0,0,3.522-28.908,16.433-28.908c12.909,0.001,8.201,29.557,8.201,29.557l2.76-4.305
	C509.108,281.112,510.245,259.515,507.402,254.967z"/>
<ellipse cx="387.342" cy="294.949" rx="11.413" ry="19.05"/>
<ellipse cx="495.36" cy="282.687" rx="8.409" ry="16.462"/>
<path d="M386.422,220.984l3.645,5.06l3.499,2.604l4.017,1.265l36.04,1.437l-0.189-0.336l-11.454-31.068
	c-21.217-0.546-34.581-0.252-42.889,0.244L386.422,220.984z"/>
<path d="M433.622,231.349l-36.04-1.437l-4.017-1.265l-3.499-2.604l-3.645-5.06l-7.332-20.795c-0.733,0.044-1.43,0.088-2.084,0.135
	c2.676,5.521,4.298,25.982,6.004,29.879c1.704,3.897,3.654,5.604,3.654,5.604l16.401,31.911l6.657,22.652l29.8-2.844l-0.162-3.248
	c0,0-0.325-2.355,0.893-18.432c1.219-16.076-2.68-27.525-2.68-27.525L433.622,231.349z"/>
<path d="M433.747,231.568l41.729,2.338l-1.01-1.296c-2,0.085-4.486-0.085-4.486-0.085l-0.639,0.762h-3.015l-2.649-11.844
	l3.276,1.757c-3.864-4.244-15.216-16.117-26.951-22.655c0,0-12.555-0.459-18.024-0.601l11.454,31.068L433.747,231.568z"/>
<path d="M475.817,234.344l-0.341-0.437l-41.729-2.338l3.826,6.752c0,0,3.898,11.449,2.68,27.525
	c-1.218,16.076-0.893,18.432-0.893,18.432l0.162,3.248l39.136-2.921c5.604-24.035,1.788-42.304,1.788-42.304L475.817,234.344z"/>
</svg>
