<?xml version="1.0" encoding="utf-8"?>
<!-- Generator: Adobe Illustrator 20.1.0, SVG Export Plug-In . SVG Version: 6.00 Build 0)  -->
<svg id="octavia" class="svg_octavia" version="1.1" xmlns="http://www.w3.org/2000/svg" xmlns:xlink="http://www.w3.org/1999/xlink" x="0px" y="0px"
	 viewBox="0 0 860 220" style="enable-background:new 0 0 860 220;" xml:space="preserve">
<!-- <style type="text/css">
	.st0{fill:#0F0D0D;}
</style> -->
<defs>
<style>
    <style type="text/css">
            .svg_octavia {
                position: absolute;
								top: -2px;
            }
            .active {
              fill: #f5f5f5;
              fill-opacity: 0.1;
              fill-rule: evenodd;
              stroke: #ccc;
              stroke-width: 1px;
              stroke-linecap: butt;
              stroke-linejoin: round;
              stroke-opacity: 1;
              cursor: pointer;
            }
            .active:hover, .active.highlight {
              fill: #4ba82e;
              fill-opacity: 0.2;
            }
            .selected {
              fill: #4ba82e;
              fill-opacity: 0.3!important;
            }
            .blocked {
                fill: none;
                cursor: default;
            }
      </style>
</style>
</defs>
<title>octavia</title>
<rect class="blocked" x="0.5" y="0.5" width="878" height="221"/>
<path id="svg_backlight_r_1" class="active" d="M549.6,84.1c15.1,1.8,30.7,3.7,46.6,5.6c0.9,0.1,1.5,0.9,1.5,1.8c-0.8,8.9-3.1,18-6.5,27.4
	h-54.5C540.7,105.3,545,93.2,549.6,84.1z"/>
<path id="svg_backlight_l" class="active" d="M436.4,78c-1.2,10.1-0.9,19.9,0.8,30.2l-7.5-1c1-11.9,2.5-22.3,5.5-29.7L436.4,78z"/>
<path id="svg_headlight_l" class="active" d="M106.7,131.7L106.7,131.7c0.3,0.2,0.6,0.3,1,0.3l25.2,0.2c0.8,0,1.6-0.1,2.5-0.2l42.4-6.6
	c2.5-5.2,4.6-10.7,6.2-16.4c0.3-1-0.5-2-1.5-2c-25.5,0.1-46.9,1.9-63.1,5.6l-13,16.4C105.8,129.9,105.9,131.1,106.7,131.7z"/>
<path id="svg_headlight_r_1" class="active" d="M13.1,122.1l-4.6-2.6c2.7-8.1,5-14.1,8.7-18.8l1.8,3.6C15.9,110,14.3,115.2,13.1,122.1z"/>
<ellipse id="svg_disk1" class="active" transform="matrix(0.122 -0.9925 0.9925 0.122 33.0053 369.4873)" cx="225.3" cy="166.1" rx="31.3" ry="17.8"/>
<ellipse id="svg_disk2" class="active" transform="matrix(6.275988e-02 -0.998 0.998 6.275988e-02 224.6777 501.796)" cx="379.5" cy="131.3" rx="23.2" ry="9.3"/>
<ellipse id="svg_disk3" class="active" transform="matrix(0.1065 -0.9943 0.9943 0.1065 429.1206 817.5286)" cx="669.4" cy="170" rx="30.6" ry="18"/>
<ellipse id="svg_disk4" class="active" transform="matrix(5.607389e-02 -0.9984 0.9984 5.607389e-02 655.4709 966.8873)" cx="839.1" cy="136.8" rx="23.4" ry="8.5"/>
<path id="svg_fender_r_front" class="active" d="M809.8,72.7L817,81c2.6,14.7,2.1,31.7-1.2,50.5l0.1,5.9l-2.1,6l5.9-1.1
	c10.7-45,28.5-61.8,35.6-26.4c0.5-7,0.1-13.3-1.5-18.7c-2.4-11.4-5.2-12.8-14.8-16.4c-7.5-3.1-15-7.5-23.1-11.9l-1.5,1.9
	c-0.7,0.9-1.8,1.5-2.9,1.7L809.8,72.7z"/>
<path id="svg_window_r_front" class="active" d="M720.9,21.1c9.6,13.1,18.6,29.2,25.9,48.9h45.9l0.6-2.9l-6.6-15.6
	C767.4,32.1,745.7,22.7,720.9,21.1z"/>
<path id="svg_door_r_front" class="active" d="M746.9,70.6l8.7,11.1c5,17.4,4.4,36,1,55.6l0.9,7.7l-2.3,9.1l58-10.6l2.1-6.2v-5.9
	c3.1-18.6,3.9-35.6,1.1-50.2l-7.4-8.5h-15.2l-1-2L746.9,70.6L746.9,70.6z"/>
<path id="svg_mirror_r" class="active" d="M788.1,52.6l6.1,14.3l-0.7,3.1l0.7,1.8h15.6c1.9,0,3.5-1,4.4-2.7l1.6-3.1c1.3-2.6,0.3-5.7-2.3-7
	l-5.8-2.9c-1.4-0.7-2.9-1.1-4.5-1h-1.9c-1.2,0-2.2,1-2.3,2.2l-0.1,3.9l-7.7-6.8c-0.9-0.8-1.9-1.3-3-1.7L788.1,52.6z"/>
<path id="svg_window_r_back" class="active"  d="M654.1,48.3l19.7,18.5c2.2,2,5,3.2,8,3.2h63.7
	c-7.2-19.2-15.9-35.4-25.8-48.9l-28.6,0.4c-9,0.1-17.6,3.9-23.7,10.5L654,46.3C653.5,46.9,653.6,47.8,654.1,48.3z"/>
<path id="svg_door_r_back" class="active"  d="M745.6,70.5c2.7,3.5,5.6,7.2,8.7,11.1c5.4,15.9,5.2,34.9,1.6,55.8l0.9,7.8
	l-2.2,9.1l-37.9,6.8c-3.6,0.7-7.1-1.7-7.8-5.3l-2.6-12.8c-6.8-20.4-17.7-39.8-30.6-58.8l-9.9-9.9c-2.1-2.1-4.1-4.4-5.9-6.9l-6.9-9.3
	c-1.7-2.4-2.8-7.5-1.1-9.9c0.4-0.5,1.1-0.5,1.5-0.1l0.3,0.3L673.1,67c2.2,2.2,5.2,3.4,8.4,3.4L745.6,70.5L745.6,70.5z"/>
<path id="svg_fender_r_back" class="active" d="M550.7,83.2l6.1-8.8c0.7-1,1.8-1.8,3.1-2l36.4-6.4c2.6-0.5,5-1.6,7-3.4
	C621.7,46.5,638.9,32,651,24.7c7.9,0.7,11.1,1.3,19.7,2.9c-1.4,1.1-2.7,2.2-3.9,3.5l-14.6,15.3l-1,1.5c-0.8,1.3-1.2,2.9-0.9,4.4
	l0.3,1.9c0.2,1.5,0.8,3,1.8,4.2l7.9,10.5c1,1.3,2.1,2.6,3.2,3.7l11.4,11.5c12.2,16.9,23.1,36.6,30.8,58.9l2.4,12.9
	c0.7,3.8,4.3,6.3,8.1,5.6c0,0-16.3,4.1-16.2,3.8c6.4-32.1-20.9-62.9-45.1-33.4l-4.5-5.1c-4-3.7-8.4-6.9-13.1-9.6l-44.9,1.4
	c3.3-9.2,5.5-18.4,6.3-27.6c0.1-1.1-0.7-2.1-1.8-2.3L550.7,83.2z"/>
<path id="svg_frame_r" class="active" d="M798,56v3.2c-23.1-19.9-37.1-29.9-55.7-35.3c4.4,0.3,10,1.5,14,2.3C768.4,30.7,781.3,40.6,798,56z
	"/>
<path id="svg_window_rear" class="active" d="M476.5,58.7c26.3-15.9,51.7-29.3,75.2-38c0.2-0.1,0.4-0.1,0.7-0.1c36-1.8,69.7-1.5,96.3,3.7
	c0.3,0.1,0.4,0.5,0.1,0.7c-17.5,10.8-45.8,37.9-49.6,39.4C549.8,59.4,506.9,56.7,476.5,58.7z"/>
<path id="svg_bumper_back" class="active" d="M653.7,133.1c0-0.4-10.6-11.4-17.2-14.5l-44.7,1.1c-20.5,0-39.3,0.5-55.9-0.1l-6.8,11.2
	c-34.4-3.1-66.3-6.4-86.2-10l-5.6-11.9l-8-0.9l-4.5,16.7l2,15.4l-0.8,5.5l3.2,10.9c25.4,7.6,73.6,12.3,123.4,16.8l17.2,13.7
	c0,0,41.7,1.5,53.8,1.9c2.3,0.1,4.4-0.9,5.8-2.7C638.8,174.1,641.7,146.3,653.7,133.1z"/>
<path id="svg_boot" class="active" d="M528.4,129.6c-29.6-2.3-58.1-5.3-84.8-9.6l-5.5-11.9c-1.7-9.6-1.8-19.9-1-30.6l-1.9-0.8l4-7.9
	c1.7-3.4,5.1-5.6,8.9-5.8c9.4-0.4,18.3-1.5,26.7-3.3C509,58,551.7,60.8,597.2,65l-37.1,6c-1.8,0.3-3.4,1.3-4.5,2.7l-6.8,9.4
	c-4.8,9.8-9.4,22.3-13.9,36.1L528.4,129.6z"/>
<path id="svg_frame_l" class="active" d="M246.4,64.1c9.2-15.9,18.2-30.5,26.7-42.1c0,0,4.3,0.2,8.1,0.8c-7,7.4-19.7,28.5-27,44.1
	L246.4,64.1z"/>
<path id="svg_fender_l_back_1" class="active" d="M340.2,18.8c12.2,6.1,27.6,18.2,43.5,33.7c6.6,0.2,12.4,2.3,15.7,11.1l0,0
	c-0.8,0.6-1.2,1.7-0.9,2.6l5.3,15.9c3.5,28.2-3,39-11.6,46.1c9.5-44.2-19.2-51.3-28.9,4.3c-3.9,0.8-7.2,2.5-7.2,2.5
	c8.8-18,16.6-37.3,19.1-58.3l0.8-14.9c0.2-3.1-0.6-6.2-2.3-8.9c-8.2-13.2-21-24.5-38.2-32.6L340.2,18.8z"/>
<path id="svg_window_l_back" class="active" d="M309.4,18.3c6.4,12.8,10.7,27.5,12.7,44.2l37.3-3.8c2.7-0.3,4.7-2.5,4.7-5.2v-12
	C347.7,24,329.3,16.7,309.4,18.3z"/>
<path id="svg_door_l_back" class="active" d="M322.5,64.1l37.6-4.7c2.7-0.3,4.8-2.7,4.8-5.4V42.1c3.5,4.2,6.6,8.7,9,13.4
	c1,1.9,1.4,4.1,1.3,6.3L374.5,76c-1.5,18.6-8.8,37.7-18.2,56.6c-1,2.1-3,3.7-5.2,4.3l-25.4,6.9l1.1-8.3l-0.3-7.6
	c2.6-18.9,3.9-35.5,0.4-54.2L322.5,64.1z"/>
<path id="svg_window_l_front" class="active" d="M265.4,47.4c1.2,3.6,1.9,7.3,2.1,11.1c2.9-2.4,6.1-4.4,9.3-5.9
	c3.9-1.8,8.3-1.9,12.3-0.5l10.8,3.9c2.3,0.8,3.7,3.2,3.2,5.6l-0.8,4l18.8-2.8c-2-16.8-6.1-31.8-12.8-44.4
	c-5.1,0.2-10.3,0.5-15.3,1.2c-7.2,1-12.7,4.4-16.3,10l-0.4,0.7L265.4,47.4z"/>
<path id="svg_door_l_front" class="active selected" d="M254.2,75.5l4.6,10.6c2.7,16.4,2.4,45.2,1.6,75.9l64.5-18.1l1.1-8.2l-0.2-7.9
	c2.7-19.8,3.4-38.4,0.3-53.9l-4.3-9.8l-19.6,2.6l-0.9,1.8c-0.9,1.7-2.8,2.8-4.7,3L254.2,75.5z"/>
<path id="svg_mirror_l" class="active" d="M264.9,48.7c1.2,3.1,1.8,6.8,1.9,11.1l7.7-5c4.5-2.9,10-3.6,15-1.8l9.7,3.5
	c2.1,0.8,3.3,2.9,3,5.1l-0.5,3.1c-0.6,3.5-3.6,5.8-7.1,6.1l-25.5,2.3l-14.4,1.2C254.8,65.9,259.4,59.4,264.9,48.7z"/>
<path id="svg_top_1" class="active" d="M554.1,19.8c40-9.8,171-12.5,201.9,6c-18.9-4.1-29.2-5.6-48.6-5.6c-26.2,0-28.1,1.6-35.8,6.8
	C629.8,19,593,17.4,554.1,19.8z"/>
<path id="svg_top" class="active" d="M162.9,20.8c28.2-10.1,140.7-15.1,176.4-2.7l-4.9,1.7c-16.3-4.4-45.9-3.5-52.5,2.2
	C241.3,18.4,194.8,17.3,162.9,20.8z"/>
<path id="svg_fender_l_front" class="active" d="M178.9,125.3c2.6-5.7,4.6-11.2,5.9-16.6c0.3-1.1-0.5-2.3-1.7-2.3l-4.2-0.2
	c15.9-6.9,33.6-13.1,51.7-18.3c4.2-1.2,7.2-4.9,7.3-9.3l0.4-9.2c2.9-0.9,5.3-2.3,7-4.4l8.4,2.9l-0.6,7.8l4.7,10.7
	c2.9,16.4,2.2,46.4,1.5,76l-6.7,2c6.2-37.8-14.4-67.2-41.2-41.1l-7.3,0.8L178.9,125.3z"/>
<path id="svg_hood" class="active" d="M237.3,69.7l-0.2,8c-0.1,4.3-2.9,8.1-7.1,9.4c-19.3,6-36.5,11.4-53.3,19c-22.2,0.2-41.4,1.7-57.7,5.2
	l-8.3,0.4l-1.1-1.5c-0.8-1.1-2.1-1.8-3.5-1.9l-36.4-1.2c-1.4,0-2.8,0.4-4,1.2l-4.1,2.8c-2.1,1.4-4.5,2.2-7,2.2h-3.1
	c-1,0-2-0.6-2.4-1.6l-2.1-5.3c-0.6-1.4-1.9-2.4-3.5-2.5L25.2,103c-1.1-0.1-2.1,0.5-2.6,1.4l-0.4,0.7c-1.6-1.2-3.9-3.4-4.3-5.2l2-2.7
	c1.9-2.6,4.4-4.7,7.3-6.2C48.9,80,71,71.2,93.5,65.3c11.1,1.3,40,1.1,66.6,1l1.5,1.8C192.2,69.8,222,71,237.3,69.7z"/>
<path id="svg_bumper_front" class="active" d="M211.1,123.9l-6.1,0.5l-26.1,1.7l-41.7,6.7c-1.2,0.2-2.5,0.3-3.7,0.3l-26-0.3
	c-0.6,0-1.2-0.2-1.7-0.6l-0.3-0.2c-0.8-0.6-1-1.8-0.4-2.6l13.1-16.8h-7.8l-13.3,15.1c-1.5,1.8-3.3,3.2-5.4,4.2l-5.2,2.5
	c-2.7,1.3-5.7,1.8-8.7,1.6c-18.6-1.4-35.8-3.1-50.4-5.2c-2.6-0.4-5-1.6-6.7-3.6c-0.5-0.6-1-1.3-1.5-2c-0.8-1.3-1.2-2.7-1.2-4.2
	c0-0.3,0-0.6,0-0.9c0-3.5,0.8-7,2.3-10.2l1.7-3.6l-2.4-1.6c-2.7,5.4-5,11.5-6,18.8l-5.7-3.1l-2.2,3.4c-1.1,1.7-1.7,3.6-1.7,5.6v14.8
	c0,0.9,0.2,1.7,0.6,2.5l1.2,2.3v13.5l-0.2,0.3c-0.4,0.5-0.7,1.1-0.7,1.7v3.2c0,1.4,0.4,2.7,1.2,3.8l2.5,3.5
	c29.7,7.2,64.7,12.1,105.5,14.4l10.2,2.3h54.5c3.8,0,7.2-2.3,8.5-5.9C196.2,162.3,196.5,139.9,211.1,123.9z"/>
<path id="svg_windshield" class="active" d="M272,22.1c-9.1,12.3-17.5,25.8-25.5,39.8c-2.6,4.6-7.5,7.5-12.8,7.5c-23.7,0-47.5-0.7-71.4-2.1
	l-1.7-2c-23.8,0.2-46,0.1-65.7-0.8c12.8-5.7,39.5-32.8,66.2-42.9C194.4,18.8,232.2,19.4,272,22.1z"/>
</svg>
