<svg xmlns="http://www.w3.org/2000/svg" width="18.667" height="21.32" viewBox="0 0 14 15.989"><defs><style>.cls-1{isolation:isolate}.cls-2{fill:#c0c7c9;fill-rule:evenodd}</style></defs><title>Trash</title><g id="Recycle_Bin_copy" data-name="Recycle_Bin copy" class="cls-1"><path class="cls-2" d="M13 3h-3V2a2.183 2.183 0 0 0-2-2H6a2.21 2.21 0 0 0-2 2v1H1a1.074 1.074 0 0 0-1 1 1.074 1.074 0 0 0 1 1v8.994a2.267 2.267 0 0 0 2 2h8a2.084 2.084 0 0 0 2-2V5a1.074 1.074 0 0 0 1-1 1.074 1.074 0 0 0-1-1zM6 2h2v1H6zm5 11.992H3V5h8z" transform="translate(0 -.001)" id="Recycle_Bin_copy-2" data-name="Recycle_Bin copy"/></g></svg>