<svg xmlns="http://www.w3.org/2000/svg" preserveAspectRatio="xMidYMid" width="19.781" height="20" viewBox="0 0 19.781 20"><defs><style>.cls-1{fill:#000;fill-rule:evenodd}</style></defs><path d="M14.649 13.005c1.883.51 4.48 1.21 5.137 3.758.1.388-.304.812-.62 1.192-.982 1.18-3.627 1.868-8.375 2.014V20c-.356 0-.669-.011-1.005-.016-.336.005-.65.016-1.006.016v-.031c-4.739-.146-7.347-.834-8.329-2.014-.316-.38-.555-.804-.455-1.192.657-2.548 3.175-3.248 5.058-3.758 1.244-.338 2.098-.608 2.113-.995-.075-.039-.207-.089-.298-.128-1.4-.602-2.661-1.601-2.661-5.882 0-1.6 1.137-4.815 4.572-5.739V0c.386 0 .748.018 1.09.05.293-.032.6-.05.921-.05v.18c4.164.812 4.634 4.175 4.634 5.82 0 4.281-1.346 5.28-2.746 5.882-.087.038-.125.085-.2.123.074.413.974.675 2.17 1zm-2.735-2.944C12.65 9.745 13.29 9.352 13.29 6c0-.721-.413-3.427-3.504-3.917C6.701 2.573 6.318 5.279 6.318 6c0 3.352.796 3.745 1.531 4.061.533.229 1.464.654 1.464 1.939 0 1.93-2.067 2.483-3.704 2.927-1.782.483-2.809.897-3.29 1.937.509.317 2.245 1.05 7.538 1.128 6.055-.078 6.956-.811 7.464-1.128-.48-1.04-1.584-1.454-3.366-1.937-1.637-.444-3.602-.997-3.602-2.927 0-1.285 1.028-1.71 1.561-1.939z" class="cls-1"/></svg>