<svg xmlns="http://www.w3.org/2000/svg" width="61" height="20" viewBox="0 0 61 20"><defs><style>.cls-1,.cls-2{fill-rule:evenodd}.cls-1{stroke:#4ba82e;stroke-linejoin:round;stroke-width:2px;fill:#fff}.cls-2{fill:#4ba82e}</style></defs><path class="cls-1" d="M9.05 2.055h42.506a7.566 7.566 0 0 1 7.566 7.566v.724a7.566 7.566 0 0 1-7.566 7.566H9.05a7.566 7.566 0 0 1-7.566-7.566v-.723A7.566 7.566 0 0 1 9.05 2.055z"/><path class="cls-2" d="M23.931 6.646h2.1v6.713h-2.1V6.646zm4 0h2.1v6.713h-2.1V6.646zm4 0h2.1v6.713h-2.1V6.646zm4 0h2.1v6.713h-2.1V6.646z"/></svg>