<svg id="Слой_1" xmlns="http://www.w3.org/2000/svg" width="11.988" height="16" viewBox="-43 393 11.988 16"><style>.st0{fill:#fff}</style><path class="st0" d="M-32.768 394.791A5.898 5.898 0 0 0-37.007 393a5.903 5.903 0 0 0-4.238 1.791A6.126 6.126 0 0 0-43 399.109c0 1.531.914 3.622 2.718 6.217a39.755 39.755 0 0 0 2.624 3.35c.021.023.039.044.057.062l.053.054a.816.816 0 0 0 .542.208.821.821 0 0 0 .556-.221l.04-.042c.019-.019.037-.04.066-.072l.171-.195a39.95 39.95 0 0 0 2.443-3.144c1.804-2.595 2.718-4.686 2.718-6.217 0-1.63-.623-3.165-1.756-4.318zm.966 4.318c0 1.338-.885 3.319-2.56 5.732a37.923 37.923 0 0 1-2.606 3.323l-.038.043-.039-.043a38.01 38.01 0 0 1-2.605-3.323c-1.675-2.412-2.56-4.394-2.56-5.732a5.32 5.32 0 0 1 1.523-3.748 5.12 5.12 0 0 1 3.682-1.554c1.39 0 2.696.552 3.68 1.554a5.32 5.32 0 0 1 1.523 3.748z"/><path class="st0" d="M-37.006 396.322c-1.451 0-2.631 1.205-2.631 2.686 0 1.481 1.18 2.685 2.631 2.685 1.45 0 2.631-1.204 2.631-2.685s-1.181-2.686-2.631-2.686zm0 4.564c-1.015 0-1.841-.843-1.841-1.878 0-1.036.826-1.878 1.841-1.878.492 0 .954.195 1.302.55.348.355.539.826.539 1.328 0 .502-.191.974-.539 1.328-.347.354-.81.55-1.302.55z"/></svg>