<svg id="Слой_1" xmlns="http://www.w3.org/2000/svg" width="26" height="25.937" viewBox="-17 -4.937 26 25.937"><style>.st0{fill:#fff}</style><path class="st0" d="M-3.998 20.992c-7.174 0-12.997-5.81-12.997-12.968S-11.172-4.944-3.998-4.944 8.999.866 8.999 8.024 3.176 20.992-3.998 20.992zm0-25.084c-6.702 0-12.143 5.428-12.143 12.116 0 6.687 5.441 12.089 12.143 12.089S8.118 14.711 8.118 8.024c0-6.688-5.414-12.116-12.116-12.116zm-6.523 19.22a.433.433 0 0 1-.309.145.434.434 0 0 1-.309-.761L2.508.895a.436.436 0 1 1 .618.616l-13.647 13.617zM-8 6.045c-1.209 0-2.192-.981-2.192-2.187S-9.209 1.66-8 1.66c1.208 0 2.202.992 2.202 2.198S-6.792 6.045-8 6.045zm0-3.512c-.737 0-1.328.589-1.328 1.325 0 .735.591 1.314 1.328 1.314s1.327-.579 1.327-1.314A1.32 1.32 0 0 0-8 2.533zM.039 9.819c1.24 0 2.255 1.013 2.255 2.25s-1.015 2.24-2.255 2.24c-1.239 0-2.255-1.003-2.255-2.24S-1.2 9.819.039 9.819zm0 3.628c.769 0 1.381-.611 1.381-1.378a1.38 1.38 0 1 0-2.761 0c0 .767.612 1.378 1.38 1.378z"/></svg>