<svg id="Слой_1" xmlns="http://www.w3.org/2000/svg" width="25.969" height="25.938" viewBox="-17 -4.938 25.969 25.938"><style>.st0{fill:#fff}</style><path class="st0" d="M-4.018 21.014c-7.173 0-12.974-5.812-12.974-12.968S-11.191-4.923-4.018-4.923c7.174 0 13 5.813 13 12.969s-5.826 12.968-13 12.968zm0-25.06c-6.702 0-12.121 5.406-12.121 12.092 0 6.685 5.419 12.092 12.121 12.092S8.13 14.731 8.13 8.046C8.13 1.36 2.684-4.046-4.018-4.046zm5.091 20.138a.445.445 0 0 1-.073 0H-9.013a.436.436 0 0 1-.436-.435V2.135a.426.426 0 0 1 .127-.327l.001-.001.012-.012L-7.815.289a.434.434 0 0 1 .176-.275.426.426 0 0 1 .347-.058c.134 0 .264.04.35.155.03.041.02.091.034.137L-5.669 1.5-4.306.122l.001-.001a.437.437 0 0 1 .617.001l1.362 1.36L-1.147.29A.437.437 0 0 1-.97.014a.426.426 0 0 1 .347-.058c.134 0 .264.04.35.155.03.041.02.091.034.136l1.548 1.561a.435.435 0 0 1 .127.308v13.541a.435.435 0 0 1-.363.435zM.564 2.297L-.67 1.037l-1.347 1.387a.436.436 0 0 1-.272.127.44.44 0 0 1-.364-.127l-1.344-1.396-1.363 1.396-.001.001a.436.436 0 0 1-.617-.001l-1.361-1.387-1.238 1.275v12.91H.564V2.297zm-7.069 6.417h4.997a.438.438 0 1 1 0 .87h-5.009a.434.434 0 1 1 .012-.87zm0 2.121h4.997a.437.437 0 1 1 0 .87h-5.009a.434.434 0 1 1 .012-.87zm0 2.121h4.997a.438.438 0 1 1 0 .87h-5.009a.435.435 0 1 1 .012-.87zm5.052-7.595a.505.505 0 0 1-.055 0H-4.85a.435.435 0 1 1 .017-.87h3.325l.011-.001a.436.436 0 1 1 .044.871zm-.051 1.25a.437.437 0 1 1-.004.871h-5.006a.436.436 0 0 1 .009-.87h4.997l.004-.001z"/></svg>