<svg xmlns="http://www.w3.org/2000/svg" width="61" height="20" viewBox="0 0 61 20">
  <defs>
    <style>
      .cls-1 {
        fill: #fff;
        stroke: #4ba82e;
        stroke-linejoin: round;
        stroke-width: 2px;
      }

      .cls-1, .cls-2 {
        fill-rule: evenodd;
      }

      .cls-2 {
        fill: #4ba82e;
      }
    </style>
  </defs>
  <path class="cls-1" d="M9.05,2.055H51.556a7.566,7.566,0,0,1,7.566,7.566v0.724a7.566,7.566,0,0,1-7.566,7.566H9.05a7.566,7.566,0,0,1-7.566-7.566V9.622A7.566,7.566,0,0,1,9.05,2.055Z"/>
  <path class="cls-2" d="M23.931,6.646h2.1v6.713h-2.1V6.646Zm4,0h2.1v6.713h-2.1V6.646Zm4,0h2.1v6.713h-2.1V6.646Zm4,0h2.1v6.713h-2.1V6.646Z"/>
</svg>
