<?xml version="1.0" encoding="utf-8"?>
<!-- Generator: Adobe Illustrator 19.1.0, SVG Export Plug-In . SVG Version: 6.00 Build 0)  -->
<svg version="1.1" id="Слой_1" xmlns="http://www.w3.org/2000/svg" xmlns:xlink="http://www.w3.org/1999/xlink" x="0px" y="0px"
	 width="25.969px" height="25.938px" viewBox="-17 -4.938 25.969 25.938" style="enable-background:new -17 -4.938 25.969 25.938;"
	 xml:space="preserve">
<style type="text/css">
	.st0{fill:#FFFFFF;}
</style>
<path class="st0" d="M-4.018,21.014c-7.173,0-12.974-5.812-12.974-12.968S-11.191-4.923-4.018-4.923c7.174,0,13,5.813,13,12.969
	S3.156,21.014-4.018,21.014z M-4.018-4.046c-6.702,0-12.121,5.406-12.121,12.092c0,6.685,5.419,12.092,12.121,12.092
	S8.13,14.731,8.13,8.046C8.13,1.36,2.684-4.046-4.018-4.046z M1.073,16.092c-0.025,0.002-0.049,0.002-0.073,0H-9.013
	c-0.241,0-0.436-0.195-0.436-0.435V2.135c-0.003-0.12,0.034-0.238,0.127-0.327l0.001-0.001c0.005-0.005,0.008-0.008,0.012-0.012
	l1.494-1.506c0.021-0.107,0.079-0.207,0.176-0.275c0.106-0.074,0.23-0.085,0.347-0.058c0.134,0,0.264,0.04,0.35,0.155
	c0.03,0.041,0.02,0.091,0.034,0.137L-5.669,1.5l1.363-1.378l0.001-0.001c0.17-0.17,0.447-0.169,0.617,0.001l1.362,1.36l1.179-1.192
	c0.021-0.107,0.08-0.208,0.177-0.276c0.106-0.074,0.23-0.085,0.347-0.058c0.134,0,0.264,0.04,0.35,0.155
	c0.03,0.041,0.02,0.091,0.034,0.136l1.548,1.561C1.391,1.89,1.436,2.001,1.436,2.116v13.541C1.439,15.872,1.285,16.056,1.073,16.092
	z M0.564,2.297l-1.234-1.26l-1.347,1.387c-0.072,0.073-0.169,0.118-0.272,0.127C-2.423,2.567-2.558,2.52-2.653,2.424l-1.344-1.396
	L-5.36,2.424c-0.001,0.001-0.001,0.001-0.001,0.001c-0.171,0.17-0.447,0.17-0.617-0.001l-1.361-1.387l-1.238,1.275v12.91h9.141
	V2.297z M-6.505,8.714h4.997c0.241-0.025,0.457,0.15,0.482,0.39s-0.15,0.455-0.391,0.48c-0.03,0.003-0.061,0.003-0.091,0h-4.997
	c-0.004,0-0.008,0-0.012,0c-0.241-0.003-0.434-0.2-0.43-0.441C-6.944,8.903-6.746,8.711-6.505,8.714z M-6.505,10.835h4.997
	c0.239-0.023,0.452,0.149,0.479,0.388c0.026,0.24-0.147,0.456-0.388,0.482c-0.03,0.003-0.061,0.003-0.091,0h-4.997
	c-0.004,0-0.008,0-0.012,0c-0.241-0.003-0.434-0.2-0.43-0.441C-6.944,11.024-6.746,10.832-6.505,10.835z M-6.505,12.956h4.997
	c0.239-0.023,0.452,0.149,0.479,0.387c0.026,0.241-0.147,0.457-0.388,0.483c-0.03,0.003-0.061,0.003-0.091,0h-4.997
	c-0.004,0-0.008,0-0.012,0c-0.241-0.003-0.434-0.201-0.43-0.441C-6.944,13.145-6.746,12.953-6.505,12.956z M-1.453,5.361
	c-0.018,0.001-0.037,0.001-0.055,0h-3.325c-0.006,0-0.011,0-0.017,0c-0.24-0.005-0.432-0.203-0.427-0.443
	c0.004-0.241,0.203-0.432,0.444-0.427h3.325C-1.504,4.49-1.501,4.49-1.497,4.49c0.241-0.012,0.446,0.173,0.458,0.414
	C-1.027,5.144-1.212,5.349-1.453,5.361z M-1.504,6.611c0.241-0.014,0.448,0.17,0.462,0.41c0.014,0.241-0.17,0.447-0.411,0.461
	c-0.018,0.001-0.037,0.001-0.055,0h-4.997c-0.003,0-0.006,0-0.009,0c-0.241-0.003-0.434-0.2-0.432-0.44
	c0.003-0.24,0.2-0.433,0.441-0.43h4.997C-1.506,6.612-1.505,6.611-1.504,6.611z"/>
</svg>
