<?xml version="1.0" encoding="utf-8"?>
<!-- Generator: Adobe Illustrator 19.1.0, SVG Export Plug-In . SVG Version: 6.00 Build 0)  -->
<svg version="1.1" id="Слой_1" xmlns="http://www.w3.org/2000/svg" xmlns:xlink="http://www.w3.org/1999/xlink" x="0px" y="0px"
	 width="19px" height="19px" viewBox="-21 -1 19 19" style="enable-background:new -21 -1 19 19;" xml:space="preserve">
<style type="text/css">
	.st0{fill:#FFFFFF;}
</style>
<path class="st0" d="M-11.501,18c-5.248,0-9.501-4.254-9.501-9.501c0-5.246,4.253-9.501,9.501-9.501c5.247,0,9.5,4.254,9.5,9.501
	S-6.254,18-11.501,18z M-11.881,3.179h-0.381V0.193c-4.005,0.363-7.183,3.541-7.547,7.546h2.987V8.12h4.941V3.179z M-11.881,8.88
	h-4.941v0.379h-2.987c0.364,4.004,3.541,7.184,7.547,7.546V13.44h0.381V8.88z M-11.121,13.44h0.379v3.364
	c4.007-0.361,7.184-3.541,7.547-7.545h-2.987v-0.38h-4.939V13.44z M-10.742,0.193v2.986h-0.379V8.12h4.939V7.739h2.987
	C-3.558,3.734-6.735,0.556-10.742,0.193z"/>
</svg>
