<svg id="Слой_1" xmlns="http://www.w3.org/2000/svg" width="19" height="19" viewBox="-21 -1 19 19"><style>.st0{fill:#fff}</style><path class="st0" d="M-11.501 18a9.5 9.5 0 0 1-9.501-9.501c0-5.246 4.253-9.501 9.501-9.501 5.247 0 9.5 4.254 9.5 9.501S-6.254 18-11.501 18zm-.38-14.821h-.381V.193a8.338 8.338 0 0 0-7.547 7.546h2.987v.381h4.941V3.179zm0 5.701h-4.941v.379h-2.987a8.337 8.337 0 0 0 7.547 7.546V13.44h.381V8.88zm.76 4.56h.379v3.364a8.333 8.333 0 0 0 7.547-7.545h-2.987v-.38h-4.939v4.561zm.379-13.247v2.986h-.379V8.12h4.939v-.381h2.987A8.335 8.335 0 0 0-10.742.193z"/></svg>