<?xml version="1.0" encoding="utf-8"?>
<!-- Generator: Adobe Illustrator 19.1.0, SVG Export Plug-In . SVG Version: 6.00 Build 0)  -->
<svg version="1.1" id="Слой_1" xmlns="http://www.w3.org/2000/svg" xmlns:xlink="http://www.w3.org/1999/xlink" x="0px" y="0px"
	 width="11.988px" height="16px" viewBox="-43 393 11.988 16" style="enable-background:new -43 393 11.988 16;"
	 xml:space="preserve">
<style type="text/css">
	.st0{fill:#FFFFFF;}
</style>
<g>
	<path class="st0" d="M-32.768,394.791c-1.13-1.154-2.636-1.79-4.239-1.791c-1.601,0.001-3.106,0.637-4.238,1.791
		c-1.132,1.153-1.755,2.688-1.755,4.318c0,1.531,0.914,3.622,2.718,6.217c0.686,0.987,1.378,1.862,1.837,2.423
		c0.26,0.315,0.474,0.566,0.606,0.72c0.076,0.088,0.135,0.155,0.181,0.207c0.021,0.023,0.039,0.044,0.057,0.062l0.053,0.054
		c0.151,0.134,0.343,0.208,0.542,0.208c0.203,0,0.398-0.077,0.556-0.221l0.04-0.042c0.019-0.019,0.037-0.04,0.066-0.072l0.171-0.195
		c0.134-0.154,0.347-0.405,0.606-0.721c0.458-0.56,1.15-1.435,1.837-2.423c1.804-2.595,2.718-4.686,2.718-6.217
		C-31.012,397.479-31.635,395.944-32.768,394.791z M-31.802,399.109c0,1.338-0.885,3.319-2.56,5.732
		c-1.232,1.773-2.469,3.17-2.606,3.323l-0.038,0.043l-0.039-0.043c-0.137-0.153-1.373-1.55-2.605-3.323
		c-1.675-2.412-2.56-4.394-2.56-5.732c0-1.415,0.541-2.747,1.523-3.748c0.982-1.002,2.29-1.554,3.682-1.554
		c1.39,0,2.696,0.552,3.68,1.554C-32.343,396.362-31.802,397.694-31.802,399.109z"/>
	<path class="st0" d="M-37.006,396.322c-1.451,0-2.631,1.205-2.631,2.686c0,1.481,1.18,2.685,2.631,2.685
		c1.45,0,2.631-1.204,2.631-2.685C-34.375,397.527-35.556,396.322-37.006,396.322z M-37.006,400.886
		c-1.015,0-1.841-0.843-1.841-1.878c0-1.036,0.826-1.878,1.841-1.878c0.492,0,0.954,0.195,1.302,0.55
		c0.348,0.355,0.539,0.826,0.539,1.328c0,0.502-0.191,0.974-0.539,1.328C-36.051,400.69-36.514,400.886-37.006,400.886z"/>
</g>
</svg>
