<?xml version="1.0" encoding="utf-8"?>
<!-- Generator: Adobe Illustrator 19.1.0, SVG Export Plug-In . SVG Version: 6.00 Build 0)  -->
<svg version="1.1" id="Слой_1" xmlns="http://www.w3.org/2000/svg" xmlns:xlink="http://www.w3.org/1999/xlink" x="0px" y="0px"
	 width="26px" height="25.937px" viewBox="-17 -4.937 26 25.937" style="enable-background:new -17 -4.937 26 25.937;"
	 xml:space="preserve">
<style type="text/css">
	.st0{fill:#FFFFFF;}
</style>
<path class="st0" d="M-3.998,20.992c-7.174,0-12.997-5.81-12.997-12.968S-11.172-4.944-3.998-4.944S8.999,0.866,8.999,8.024
	S3.176,20.992-3.998,20.992z M-3.998-4.092c-6.702,0-12.143,5.428-12.143,12.116c0,6.687,5.441,12.089,12.143,12.089
	S8.118,14.711,8.118,8.024C8.118,1.336,2.704-4.092-3.998-4.092z M-10.521,15.128c-0.079,0.089-0.191,0.141-0.309,0.145
	c-0.132,0.007-0.261-0.047-0.348-0.147c-0.159-0.18-0.142-0.455,0.039-0.614L2.508,0.895c0.171-0.168,0.445-0.168,0.615-0.001
	c0.171,0.17,0.173,0.446,0.003,0.617L-10.521,15.128z M-8,6.045c-1.209,0-2.192-0.981-2.192-2.187S-9.209,1.66-8,1.66
	c1.208,0,2.202,0.992,2.202,2.198S-6.792,6.045-8,6.045z M-8,2.533c-0.737,0-1.328,0.589-1.328,1.325
	c0,0.735,0.591,1.314,1.328,1.314s1.327-0.579,1.327-1.314C-6.673,3.122-7.263,2.533-8,2.533z M0.039,9.819
	c1.24,0,2.255,1.013,2.255,2.25s-1.015,2.24-2.255,2.24c-1.239,0-2.255-1.003-2.255-2.24S-1.2,9.819,0.039,9.819z M0.039,13.447
	c0.769,0,1.381-0.611,1.381-1.378c0-0.766-0.612-1.388-1.381-1.388c-0.768,0-1.38,0.622-1.38,1.388
	C-1.341,12.836-0.729,13.447,0.039,13.447z"/>
</svg>
