<?xml version="1.0"?>
<!DOCTYPE svg PUBLIC "-//W3C//DTD SVG 1.1//EN" "http://www.w3.org/Graphics/SVG/1.1/DTD/svg11.dtd">
<svg xmlns="http://www.w3.org/2000/svg" class="svg_octavia_c" id="octavia_c" data-name="Layer 1" viewBox="0 0 860 249">
<defs>
    <style type="text/css">
                        .svg_octavia_c {
                            position: absolute;
                            left: 0;
                            top: 1px;
                        }
                        .active {
                          fill: #f5f5f5;
                          fill-opacity: 0.1;
                          fill-rule: evenodd;
                          stroke: #ccc;
                          stroke-width: 1px;
                          stroke-linecap: butt;
                          stroke-linejoin: round;
                          stroke-opacity: 1;
                          cursor: pointer;
                        }
                        .active:hover, .active.highlight {
                          fill: #4ba82e;
                          fill-opacity: 0.2;
                        }
                        .selected {
                          fill: #4ba82e;
                          fill-opacity: 0.3!important;
                        }
                        .blocked {
                            fill: none;
                            cursor: default;
                        }
                        </style>
</defs>
<title>octavia_combi2</title>
<rect class="blocked" x="0.5" y="0.5" width="860" height="248"/>
<g id="0c59f717-4411-4a00-a1cb-e7eab993219e" data-name="2">
    <path id="svg_boot" class="active" d="M923.69,485.84a365.05,365.05,0,0,0-57.78,2.66L863.33,492c-20.52,14.7-46.67,46.48-46.67,46.48l-3.86,17.64s3.55,18.56,2.2,24.25,4.47,17,7.17,17.27,114,12.19,115.93,11.94S946.38,593,946.38,593s6.3-39.38,9.74-45.75,17.17-37.41,31.31-58.12C987.42,489.18,938.39,486.34,923.69,485.84Z" transform="translate(-360.63 -463.27)"/>
    <path id="svg_bumper_back" class="active" d="M1029.24,586.56l-37,3.67c-3.11,4.06-45.87,2.82-45.87,2.82s-6.31,16.29-8.27,16.54-113.24-11.66-115.93-11.94-8-10.52-7.31-16.41L808,579.36l-3.49,11.48,2,25.45,1.75,7.44c79.83,18.19,143.77,17,143.77,17l15.68,12s34.79,0.92,46.3-1,19.17-43.54,28.66-57.81Z" transform="translate(-360.63 -463.27)"/>
    <path id="svg_fender_r_back" class="active" d="M1065.8,561.26c-7.17-14.7-15.16-24.44-19.57-24.8s-43.4,5.14-43.4,5.14-13.46-.37-16.22-6.61,9.43-35.89,18-42.07l-17.2-3.73c-14.13,20.7-27.87,51.74-31.31,58.12a31.2,31.2,0,0,0-2,5.8l43.67,4.13-5.57,33,37-3.67,13.47,7.35s7.54-10.57,16.47-12.06c20-3.34,17.82,39.68,17.82,39.68l10.47-2.76S1073,576,1065.8,561.26Z" transform="translate(-360.63 -463.27)"/>
    <path id="svg_door_r_back_choice" class="choice" d="M1111.18,528.25L1098,503.66l-13.44-22.16a235.16,235.16,0,0,0-48,4.15l11.76,47.13,2.19,6c4.39,3.74,10,11.81,15.26,22.51,7.17,14.7,21.68,57.51,21.68,57.51l33.62-9.18s3.67-27.75,3.86-46.85S1111.18,528.25,1111.18,528.25Z" transform="translate(-360.63 -463.27)"/>
    <path id="svg_mirror_r" class="active" d="M1159.5,511.38s-4.77-.83-6.52,0,0,6.06,0,6.06l-5.79-5.24,2.2,12.22,7.26,3.31s9.58-.81,10.56-2.2,4.13-5.33,4-9S1159.5,511.38,1159.5,511.38Z" transform="translate(-360.63 -463.27)"/>
    <path id="svg_door_r_front_choice" class="choice" d="M1156.65,527.73l-7.26-3.31-2.2-12.22,5.79,5.24a15.7,15.7,0,0,1-.77-4.21c-2.25-2.37-4.76-5-7.59-7.82-24.25-24.62-60.08-23.91-60.08-23.91L1098,503.66l13.2,24.59s14,15.37,13.78,34.48-3.86,46.85-3.86,46.85L1167,594.7s3.67-28.89,3.67-44.57c0-9.61-.7-15-6.81-23.38C1160.78,527.38,1156.65,527.73,1156.65,527.73Z" transform="translate(-360.63 -463.27)"/>
    <path id="svg_top1" class="active" d="M1084.54,470.32c-25.72-4-64.12,1.59-64.12,1.59H994.27s-3.36-3.07-39.87-3.55c-50.65-.68-69.85,14.18-69.85,14.18l-18.65,6a365.05,365.05,0,0,1,57.78-2.66c14.7,0.49,63.74,3.34,63.74,3.34s80.74-15.51,116.16-10.11C1103.58,479.08,1094.42,471.87,1084.54,470.32Z" transform="translate(-360.63 -463.27)"/>
    <path id="svg_fender_r_front" class="active" d="M1197.78,546.75s-6-2.57-7.23-6.74-0.86-6.37-.86-6.37-15.67-5.48-20.35-11.25c-0.82,1.38-1.69,2.51-2.13,3.13s-1.72.9-3.38,1.23h0.06c6.11,8.38,6.81,13.77,6.81,23.38,0,15.69-3.67,44.57-3.67,44.57l5.22-2s9.4-44,19.15-45.31c4.65-.61,7.72,17.52,7.72,17.52l1.35-1.35C1202.52,558.5,1197.78,546.75,1197.78,546.75Z" transform="translate(-360.63 -463.27)"/>
    <ellipse id="svg_disk3" class="active" cx="1053.38" cy="632.26" rx="30.59" ry="14.62" transform="translate(-43.37 1152.6) rotate(-84.16)"/>
    <ellipse id="svg_disk4" class="active" cx="1186.74" cy="586.95" rx="22.75" ry="8.57" transform="translate(121.45 1244.54) rotate(-84.16)"/>
</g>
<g id="815f5386-c149-4572-88ce-e2786306c2e8" data-name="1">
    <path id="svg_hood" class="active" d="M478.74,531.82c-34.91,9.86-72.27,32.94-72.9,35.6S414,577.73,414,577.73l25.8,4s4.49,8.35,5.69,8.35,7.79,0.3,10.57,0,11.06-5.74,11.06-5.74l44,2.85L580.19,580,632,556.86s3.14-10.63,1.71-16.88C632.93,536.65,487.88,529.24,478.74,531.82Z" transform="translate(-360.63 -463.27)"/>
    <path id="svg_bumper_front" class="active" d="M536.75,608c-13.91.7-25.29-.76-25.67-1s7.25-14.09,11-20.93l-10.92,1.14-0.25,0c-3.64,5.54-9.49,14.18-12.84,17.66-5.12,5.31-14.42,6.7-14.42,6.7s-63.11-4.18-66.65-7a16,16,0,0,1-6.07-9.93c-0.43-2.45,1.78-11.44,3.23-16.93l-0.13,0s-1.85-1.61-3.79-3.61l-4.4,23a74.84,74.84,0,0,1-7.43-3c-1.58-.95-2.5-4.27-2.5-4.27L392.81,596l-1.52,20.62,1.77,3.54,1.39,21s3.73,10.05,8.09,11.26S509.42,668,528.4,668.47s58.62-.82,60.08-4.43c6.59-16.33,15.3-57.55,23.9-67l-31.24,3.67S550.66,607.32,536.75,608Z" transform="translate(-360.63 -463.27)"/>
    <path id="svg_windshield" class="active primitive selected" d="M543.39,482.68c-17.93,4.84-61.66,47.71-61.66,47.71l0.72,1c21.31-1,118.46,3.81,144.7,7.13l2.28-.39s7.3,0.47,10.43-4.36S664,485.14,664,485.14,561.31,477.84,543.39,482.68Z" transform="translate(-360.63 -463.27)"/>
    <path id="svg_fender_l_front" class="active" d="M649.72,545.29V535L641,531.87c-0.48.87-.85,1.54-1.11,1.93-3.13,4.84-10.43,4.36-10.43,4.36l-2.28.39c4.08,0.52,6.45,1,6.55,1.41,1.43,6.25-1.71,16.88-1.71,16.88L580.19,580s4.93-.7,6.17.57-4.74,20.05-4.74,20.05h0L612.38,597s8.13-13.59,19.6-12.93c23.8,1.38,18.21,48.28,18.21,48.28l7.4-3.51s-1.77-69.22-2-73.23S649.72,545.29,649.72,545.29Z" transform="translate(-360.63 -463.27)"/>
    <path id="svg_door_l_back_choice" class="choice" d="M731.27,478c-28.76-1.16-33.52,1-33.52,1,0.51,0,13.66,45.53,13.66,45.53l7.34,17.58-1.52,64.25,25-10.81s23-36.93,18.66-66C759,516.83,737.6,478.27,731.27,478Z" transform="translate(-360.63 -463.27)"/>
    <path id="svg_fender_l_back" class="active" d="M782.62,523.15a12.58,12.58,0,0,1,0-6.2l-9.17-12h-1a8.37,8.37,0,0,1-1.27,5.44c-1.71,2.47-15.44,4.4-15.44,4.4,2.68,6,4.62,11.31,5.14,14.77,4.31,29-18.66,66-18.66,66l9-4.14s6.59-38.07,17.6-39.94a7.6,7.6,0,0,1,7,2.4l11.83-13.34S783.5,526.31,782.62,523.15Z" transform="translate(-360.63 -463.27)"/>
    <path id="svg_top" class="active" d="M730.89,467.63c-8.6-1.64-39.21-1.27-39.21-1.27l-15.56,2.53-26.4-.63s-16.35-4.7-48-3.36-37.7,9.29-42,10.82c-6.43,2.3-15.41,6.24-19.29,8a23.83,23.83,0,0,1,2.91-1c17.12-4.62,112.18,1.87,120.66,2.47,0,0,21.44-18.69,78.16-10.06C742.21,475.09,739.49,469.27,730.89,467.63Z" transform="translate(-360.63 -463.27)"/>
    <path id="svg_mirror_l" class="active" d="M673.63,518.72c-3.41.28-11.48,8.44-11.48,8.44l-4.77-11.26L649.72,535v10.24l15.94-5.5s27.51-2.85,28.27-3.6,6-5.22,3.13-10.72S677,518.44,673.63,518.72Z" transform="translate(-360.63 -463.27)"/>
    <path id="svg_door_l_front_choice" class="choice" d="M711.41,524.54S698.26,478.95,697.75,479c-26.17,3.13-27.44,4.46-40.38,36.89l4.77,11.26s8.06-8.16,11.48-8.44,20.58,1.23,23.43,6.73-2.37,10-3.13,10.72-28.27,3.6-28.27,3.6l-15.94,5.5s5.66,6.32,5.88,10.34,2,73.23,2,73.23l59.63-22.48,1.52-64.25Z" transform="translate(-360.63 -463.27)"/>
    <ellipse id="svg_disk2" class="active" cx="624.49" cy="639.29" rx="32.16" ry="16.41" transform="translate(-435.62 732.25) rotate(-84.16)"/>
    <ellipse id="svg_disk1" class="active" cx="764.86" cy="589.71" rx="23.79" ry="9.63" transform="translate(-260.2 827.36) rotate(-84.16)"/>
</g>
</svg>
