<?xml version="1.0"?>
<svg xmlns="http://www.w3.org/2000/svg" class="svg_octavia_rs" id="octavia_rs" data-name="Layer 1" viewBox="0 0 861 242">
<defs>
    <style type="text/css">
                                .svg_octavia_rs {
                                    position: absolute;
                                    left: 0;
                                    top: 0;
                                }
                                .active, .choice {
                                  fill: #f5f5f5;
                                  fill-opacity: 0.1;
                                  fill-rule: evenodd;
                                  stroke: #ccc;
                                  stroke-width: 1px;
                                  stroke-linecap: butt;
                                  stroke-linejoin: round;
                                  stroke-opacity: 1;
                                  cursor: pointer;
                                }
                                .active:hover, .active.highlight,
                                 .choice:hover, .choice.highlight{
                                  fill: #4ba82e;
                                  fill-opacity: 0.2;
                                }
                                .selected {
                                  fill: #4ba82e;
                                  fill-opacity: 0.3!important;
                                }
                                .blocked {
                                    fill: none;
                                    cursor: default;
                                }
                                </style>
</defs>
<title>octavia_combi_rs</title>
<rect class="blocked" x="0.5" y="0.5" width="860" height="241"/>
<g id="169510d7-e9d0-4a98-b054-1d30977621e1" data-name="2" class="e6443592-813e-4e28-9072-91d0ac8c361d">
    <path id="svg_boot" class="active" d="M954.21,503.8c-30.9-2-70.46,3.5-70.46,3.5a11.24,11.24,0,0,0-4,3.5,3.86,3.86,0,0,0-.18,4.41c-25.2,17.84-45.44,45.44-45.44,45.44s-3.86,10.85-3.68,17.84,5.7,37.53,5.7,37.53,1.61,3.93,4.41,4.23,111.11,14.53,114.24,12.14,9.38-17.29,9.38-17.29,3.68-20.05,4.6-28A103.75,103.75,0,0,1,973,569.48s13.73-38.56,33.55-58.93C1006.74,510.32,985.11,505.83,954.21,503.8Z" transform="translate(-373.5 -484.27)"/>
    <path id="svg_bumper_back" class="active" d="M1043.06,608.91l-34.58,4.41L992,615.77l-27.62-2.2-0.28,1.52s-6.25,14.9-9.38,17.29-111.43-11.84-114.24-12.14-4.41-4.23-4.41-4.23-1.13-6.25-2.38-13.73h-1.85L825,601.06l-3.19,12.51v25.75S883.14,650.11,970.05,658c4.11,0.37,25.92,17.39,25.92,17.39l38.51-2,8.58-14.35s8.34-33.48,17.17-43.29Z" transform="translate(-373.5 -484.27)"/>
    <path id="svg_fender_r_back" class="active" d="M1063.17,557.64L1021.72,564s-17.9-1.23-18.89-9.32,7.11-27.23,17.41-40l-13.73-4.17C986.71,530.92,973,569.48,973,569.48s-1.05,3.1-2.14,7.23c0,0,39.85.58,42.79,2.52s-5.15,34.09-5.15,34.09l34.58-4.41,17.17,6.87s5.27-10.94,13.74-12.26c23.55-3.68,19.13,39.73,19.13,39.73l11-2.7C1092.36,585.6,1063.17,557.64,1063.17,557.64Z" transform="translate(-373.5 -484.27)"/>
    <path id="svg_door_r_back_choice" class="choice" d="M1139.94,575.3l-4.41-16.19-9.87-9.5a299.39,299.39,0,0,0-21.52-46.25c-42.68-.84-53.53,5.41-53.53,5.41l12.57,48.87s29.19,28,41,82.9l33.43-10.08,1.4-9.79-1.72-5.4Z" transform="translate(-373.5 -484.27)"/>
    <path id="svg_mirror_r" class="active" d="M1175.33,531.31a11.78,11.78,0,0,0-6.53.74l-1.1,5.79-5.15-5.79,3.13,14.26,4.78,1.38s9.57,0.55,11.5-1,4.51-6.35,4.51-6.35,0.74-.46,0-2.48S1178.54,532,1175.33,531.31Z" transform="translate(-373.5 -484.27)"/>
    <path id="svg_door_r_front_choice" class="choice" d="M1183.6,557.15l-6.52-9.46c-3.18.18-6.63,0-6.63,0l-4.78-1.38L1162.54,532l5.15,5.79,0.41-2.16a103,103,0,0,0-8.17-9.61c-4.69-4.41-20.57-17.66-26-19.68s-23.18-3.1-23.18-3.1l-6.62.08a299.39,299.39,0,0,1,21.52,46.25l9.87,9.5,4.41,16.19-2.7,40,1.72,5.4-1.4,9.79,44.94-15.73,4.6-40.47Z" transform="translate(-373.5 -484.27)"/>
    <path id="svg_fender_r_front" class="active" d="M1211.56,565.89s-9.66-8-10.85-9.75a8.83,8.83,0,0,1-1.2-4.32l-14.32-9.34a18.91,18.91,0,0,1-3.25,4.19c-0.77.63-2.77,0.91-4.89,1h0l6.52,9.46,3.5,17.11-4.6,40.47,5.54-2s6.62-39.44,16.53-44.1c5.15-2.42,8.71,10.82,8.71,10.82l2.33-1Z" transform="translate(-373.5 -484.27)"/>
    <path id="svg_top1" class="active" d="M1116.28,497.55s-4.35-4.06-14.16-5.89c-24.53-4.56-59.42,1.1-59.42,1.1l-32.19.74s-1.68-3.3-11.59-4c-27.74-2.08-59.79,1.66-72.48,4.41a66.82,66.82,0,0,0-22.07,9.41l-7.94,2.53c14.18-1.47,37.79-3.32,57.79-2,30.9,2,52.53,6.52,52.31,6.75h0s74.43-22.94,121.16-8.4Z" transform="translate(-373.5 -484.27)"/>
    <ellipse id="svg_disk3" class="active" cx="1069.83" cy="648.7" rx="32.49" ry="15.13" transform="translate(-1.65 1202.78) rotate(-87.32)"/>
    <ellipse id="svg_disk4" class="active" cx="1202.85" cy="603.44" rx="24.05" ry="8.99" transform="translate(170.32 1292.49) rotate(-87.32)"/>
</g>
<g id="6fb142fa-bd30-4eff-b8bb-c7b08b71e7fa" data-name="1" class="e6443592-813e-4e28-9072-91d0ac8c361d">
    <path id="svg_hood" class="active" d="M644.59,560.47s1.86,14-2.24,17-47.43,20-50,23.45-58.23,6.87-67.11,6.31-45.51-2.3-45.51-2.3-10.07,6-11.06,6.46-10.78,1-11.56,0L451,603.34l-24.23-3s-6.09-5-8-7.76,0-6,0-6S432,579.24,448.36,571C482.54,553.94,492,552,492,552Z" transform="translate(-373.5 -484.27)"/>
    <path id="svg_bumper_front" class="active" d="M551.57,629.07h-30.2s10.91-21.76,15.75-22c0,0-9.93.3-11.93,0.18l-3-.18L508.7,626.64s-7.64,4.66-13.23,6.52c-16.26,5.42-62.07-6.71-66.36-8s-5.59-8.2-5.59-8.2l3.4-16.57-0.17,0s-1.86-1.52-3.84-3.34L418.85,617l-6.52-1.49-2.8-8.2-3.91,20.88a9.58,9.58,0,0,0-1.86,4.1c-0.28,2.14,4.29,23.3,4.29,23.3s-3,5-3,7.83,3,10.07,3,10.07S490.74,687.85,516,688.9s53.31-.44,75.87-0.93,7.15-44.24,31.88-70.09l-32.06,4.29Z" transform="translate(-373.5 -484.27)"/>
    <path id="svg_windshield" class="active primitive selected" d="M554.36,503.62C543.18,504,492,552,492,552l149.81,8.3c3.64-.91,7.46-2.57,8.95-5.62L674,507C665.65,503.62,565.55,503.24,554.36,503.62Z" transform="translate(-373.5 -484.27)"/>
    <path id="svg_fender_l_front" class="active" d="M665.65,575.2l-5.41-9.32v-9.13l-8.39-4.34-1.12,2.29c-1.49,3.05-5.31,4.72-8.95,5.62l-4.85-.27h0l7.65,0.42s1.86,14-2.24,17-47.43,20-50,23.45a2.91,2.91,0,0,1-1.25.71s3.76-1,5.25.72-4.66,19.79-4.66,19.79l32.06-4.29s8.76-15.31,22.09-12.13c21.55,5.14,15.44,47,15.44,47l6.09-2.55Z" transform="translate(-373.5 -484.27)"/>
    <path id="svg_door_l_back_choice" class="choice" d="M767.61,540.53l-6.34-5.78s-15.76-35.68-18.64-36.35c-15.29-3.54-35.76,1.4-35.76,1.4l0.34,0,14.66,47,4.72,11.06a24,24,0,0,1,1.74,7.58c0,3.29-2.24,46.57-2.24,46.57v14.82L751.4,616s14.62-33.74,15.66-41l2.8-19.57Z" transform="translate(-373.5 -484.27)"/>
    <path id="svg_fender_l_back" class="active" d="M794.33,550.78a49.9,49.9,0,0,0-3.6-10.44l1.37-3.73-9.69-13.67s1.53,8.7-3.6,9.69l-16.36,3.17,5.18,4.72,2.24,14.91L767.05,575c-1,7.28-15.66,41-15.66,41l8.64-3.48s8.33-34.17,14.91-39.39,9.32,0,9.32,0l10.81-13.92A49.86,49.86,0,0,0,794.33,550.78Z" transform="translate(-373.5 -484.27)"/>
    <path id="svg_top" class="active" d="M738.36,487.59a130.47,130.47,0,0,0-47.83,1.21H660.24a65.63,65.63,0,0,0-12.49-3.17c-5.87-.72-35.6-0.37-50.24,1.49s-28.89,10-28.89,10l-14.91,6.38-0.13.21a5.49,5.49,0,0,1,.79-0.1c11.18-.37,111.28,0,119.67,3.36,0,0,22.74-18.73,77.82-12.17C751.86,494.8,748.51,489.32,738.36,487.59Z" transform="translate(-373.5 -484.27)"/>
    <path id="svg_mirror_l" class="active" d="M691.81,541a28.23,28.23,0,0,0-8.45,0c-3.85.75-10.94,6.71-10.94,6.71l-4-13.43-8.19,22.5v9.13L674,561.46s27.22-1.49,29.82-4,3.67-6.71,3-10.94S691.81,541,691.81,541Z" transform="translate(-373.5 -484.27)"/>
    <path id="svg_door_l_front_choice" class="choice" d="M726.6,557.86l-4.72-11.06-14.66-47s-18.08.5-29.14,16c-3.46,4.84-6.81,11.71-9.64,18.45l4,13.43s7.08-6,10.94-6.71a28.23,28.23,0,0,1,8.45,0s14.42,1.37,15.07,5.6-0.41,8.45-3,10.94-29.82,4-29.82,4l-13.79,4.41,5.41,9.32,1.68,75,58.78-23.36V612s2.21-43.28,2.24-46.57A24,24,0,0,0,726.6,557.86Z" transform="translate(-373.5 -484.27)"/>
    <ellipse id="svg_disk1" class="active" cx="635.4" cy="655.44" rx="33.25" ry="17.25" transform="translate(-430.91 765.6) rotate(-86.52)"/>
    <ellipse id="svg_disk2" class="active" cx="774.51" cy="605.22" rx="24.86" ry="9.75" transform="translate(-250.11 857.31) rotate(-86.52)"/>
</g>
</svg>
