<?xml version="1.0" encoding="utf-8"?>
<!-- Generator: Adobe Illustrator 20.1.0, SVG Export Plug-In . SVG Version: 6.00 Build 0)  -->
<svg version="1.1" id="Слой_3" xmlns="http://www.w3.org/2000/svg" xmlns:xlink="http://www.w3.org/1999/xlink" x="0px" y="0px"
	 viewBox="0 0 860 220" style="enable-background:new 0 0 860 220;" xml:space="preserve">
<style type="text/css">
	.st0{fill:#020202;}
</style>
<path d="M273.2,21.3c-15.7,20.1-23.8,44.8-33.6,47.7c-11.3,2.1-46.5,0.8-77.9-1.1l-1.9-1.7l-30.2-0.3c-12.1,0.6-25.6,0.3-34.6-1.1
	c23.9-18.9,46.7-34.9,64.7-43.3C195.5,18.9,234.2,19,273.2,21.3z"/>
<path d="M49.7,111.2l-2.2-4.5c-0.5-1-1.5-1.7-2.7-1.9c-7.7-0.9-14.9-1.7-21.1-2c-0.5,0-1,0.2-1.2,0.7l-0.5,1c-0.3,0.5-0.7,0.6-1,0.3
	c-1.3-1.1-2.4-2.6-3.3-4.3c-0.4-0.8-0.3-1.8,0.3-2.6c8.5-10.1,48-25.2,75.7-33.2c8.2,1,18.2,1.4,29.8,1.3l6.6-0.1l29.8,0.3l1.9,1.7
	c29.1,1.5,54.5,2.6,76.5,1.8L237,80.1c-0.2,3.7-2.7,6.8-6.1,8c-17.8,3.3-34.6,9-50.4,17c-0.8,0.4-1.6,0.6-2.4,0.7l-57,4.2l-9.2,1.8
	l-3.1-3.2l-37.1-1.4c-1.4-0.1-2.8,0.3-4,0.9l-7.7,4.1c-0.9,0.5-1.9,0.7-2.9,0.7l-4.9-0.2C50.9,112.6,50.1,112.1,49.7,111.2z"/>
<path d="M119.1,111.8l-13.3,16.8c-0.6,0.8-0.4,1.9,0.5,2.4l1.8,1h28.7l42.8-6l25.3-2.5l6,0.2c-10.3,11.9-13.8,27.9-19.5,51.5
	c-1.1,4.5-2.5,8.8-4.7,12.2c-1.2,1.8-3.1,2.8-5.3,2.9L127,192c-1.5,0-2.9-0.1-4.4-0.4l-7.9-1.9l-24.1-1.5l-51.5-5.9l-1.8-1.8
	L12.9,176l-0.5-0.1c-2.4-0.3-4.5-1.6-5.9-3.6c-2.2-3.1-2.5-6.6-0.4-10.6v-13.5l-1.3-1.9c-0.8-1.1-1.1-2.3-1.1-3.6L4.4,127
	c0.1-1.2,0.5-2.3,1.1-3.3l3.1-4.3l4.8,3.1c1.4-6.8,3.4-12.8,6.1-17.8l3.4,1.6l-3.3,6.9c-3.6,7.5,1.3,16.2,9.6,17l48.5,4.6
	c8.4,0.8,16.7-2.7,22-9.3l10.8-13.5L119.1,111.8z"/>
<path d="M105.8,129.3l13.4-16.8c0.9-1.1,2.2-1.9,3.6-2.1c17.4-2.3,37.9-3.6,60-4.3c1.4-0.1,2.4,1.3,1.9,2.7l-5.3,14.3
	c-0.7,1.7-2.2,3-4,3.3l-36.7,6c-2.7,0.4-5.4,0.6-8.1,0.5l-21.6-0.7c-0.5,0-1-0.2-1.4-0.4l-1.6-0.9
	C105.6,130.5,105.4,129.8,105.8,129.3z"/>
<ellipse transform="matrix(0.122 -0.9925 0.9925 0.122 33.0885 369.4733)" cx="225.4" cy="166" rx="31.3" ry="17.8"/>
<path d="M266.4,50.9c-3.7,5.5-8.7,14-12.5,23.3l6.3-1v0.1c0.1,0.8,0.9,1.4,1.7,1.2c9.2-1.9,22.1-2.6,34.6-3.8c1-0.1,2-0.5,2.8-1.2
	c2.2-1.9,3.8-4.6,3.7-9.3c0-0.9-0.4-1.7-1.1-2.3c-2.3-1.8-8.4-5.8-18-5.8c-5.1,0-7.7,1.8-10.4,3.8c-3.1,2.2-6.1,4.6-6.1,4.6
	C267.5,56.8,267.2,53.7,266.4,50.9z"/>
<path d="M308.8,17.3c7.2,13.6,11.6,29.3,12.7,45.4l5.2,11.8c2,17,1.7,34.3-0.5,51.9l0.5,9.1l-2,8.9l-64.3,17.2l1.2-9.4l-0.2-7.4
	c1-21.7,0.4-41.9-2.6-59.4l-4.8-9.8l7.3-1c12.2-2,27.7-2.6,35.4-3.9c1.7-0.3,2-0.8,2.8-1.2c3.7-2.6,4.8-10.2,2.6-11.6
	c0,0-7.8-5.8-17.6-5.8c-4.9,0-8.1,2-10.9,3.8c-3.6,2.3-6.1,4.6-6.1,4.6c0.2-3.9-0.1-7.1-0.9-9.5c-4.2,6.7-9.2,14.8-12.5,23.3
	l0.6-7.2c4.2-9.8,17.1-33.7,23.7-39.9C287.5,18.4,294.2,16.9,308.8,17.3z"/>
<path d="M353.2,136c12.5-18,20-40.9,22.5-68.6l-2.8-9.7c-1-6.3-4-12-8.5-17.2c-19.9-19.6-34.9-23.7-55.8-23.2
	c6.8,12.3,11.3,27.9,12.7,45.4l5.2,11.8c2.1,17,1.6,34.3-0.5,51.9l0.5,9.1l-2,8.9L353.2,136z"/>
<path d="M246.2,63.7l8.3,3.3l-0.8,8.5l4.8,9.8c2.9,13.2,3,35.5,2.6,59.4l0.2,7.4l-1.2,9.4l-7.2,2.1c3.7-33.2-6.9-51.2-22.3-51
	c-6.2,0.1-12.4,3.9-18.5,9.8l-33,3.2c2.3-6.2,4.4-12.5,5.5-17.5c0.2-1.1-0.6-2.1-1.7-2.1h-3.8c12.1-7.9,30.7-13.8,51.2-17.8
	c3.3-0.6,5.7-3.6,6.2-7l1.6-11.7C241.9,68,244.6,66,246.2,63.7z"/>
<path d="M273.2,21.3c13.3-8.6,23.7-7.9,44.3-7.8c-40.8-7.2-141.7-1.2-157.9,8C189,19,235.7,19.2,273.2,21.3z"/>
<ellipse transform="matrix(6.275445e-02 -0.998 0.998 6.275445e-02 224.8194 501.8438)" cx="379.6" cy="131.2" rx="23.2" ry="9.3"/>
<path d="M595.8,66.7l-38.2,5.5c-3.9,6.5-8.2,13.7-12.8,21.3l-8.7,26l-6.3,11c-32-1.6-61.2-4.6-86.5-9.3c-4.5-7.5-6.8-19.5-7.2-35.5
	v-6.1c0-2.5,0.6-4.9,1.9-7l4.6-8.2c11.6-0.9,22.8-2.4,33.5-4.7C511.8,58.2,550.2,59.2,595.8,66.7z"/>
<path d="M430,107.9c0,0-4,10.3-4.7,13.3c-0.7,3.1,1.9,33.9,3.3,33.9c29.6,8.6,72.3,14,121.6,17.9c1.5,0.1,3,0.6,4.3,1.5
	c4.9,3.2,9.7,7.2,14.6,11.6c0.6,0.6,1.5,0.9,2.3,0.9l54.9,1.4c1,0,1.9-0.4,2.5-1.2c14.4-20.6,11-39.3,26.2-55.3
	c-5.1-5.2-11.1-10.2-18.1-14.8l-43.6,1.8c-19.3,1-38.2,1-56.9,0l-6.5,11.6l-86.5-9.3l-6.1-12L430,107.9z"/>
<path d="M649.5,25.3c-22.9-7.1-81.2-7.1-102.1-3.3c-23.3,9.3-47.1,22.2-71.2,37.7c36.3-1.7,77.2,0.3,123.2,6.2
	C616.9,51.8,631.4,36.6,649.5,25.3z"/>
<path d="M720.5,20.7C731.4,36,740,52.1,745.7,69l9.2,12.3c5.6,14.7,5.5,33.7,1.7,55.3l0.7,8.3l-2.7,9.7l-38.2,6.5
	c-3.2,0.5-6.2-1.5-6.9-4.6l-3.1-13.9c-5.8-18.6-16.8-38.2-30.2-58.2l-11.4-11.3c-0.8-0.8-1.6-1.7-2.2-2.6L653,57
	c-2-2.9-1.8-6.9,0.6-9.5c3.8-4.2,9.7-10.5,14.9-15.9c6.7-7,15.9-10.9,25.6-10.9H720.5z"/>
<path d="M812.8,144.1l2.2-6.8v-5.6c4.3-17.6,5.2-34.4,1.1-49.9c-2.5-4.1-5.2-7.4-8.1-9.8l-14.4-1c-1.4-7-3.9-14.4-6.9-21.9
	c-20.3-18.3-41.2-28.1-66.3-28.4c10.6,15.1,19.5,31,25.2,48.3l9.2,12.3c5.6,14.6,5.6,33.5,1.7,55.3l0.7,8.3l-2.7,9.7L812.8,144.1z"
	/>
<ellipse transform="matrix(0.1065 -0.9943 0.9943 0.1065 429.1583 817.6038)" cx="669.5" cy="170" rx="30.6" ry="18"/>
<ellipse transform="matrix(5.606938e-02 -0.9984 0.9984 5.606938e-02 655.5912 966.7831)" cx="839.1" cy="136.7" rx="23.4" ry="8.5"/>
<path d="M788.2,53.2c2.5,6.2,4.4,12.1,5.5,17.8l13.6,1.1c0.5,0,1.1,0,1.6,0l3.4-0.4c0.8-0.1,1.5-0.5,2-1.2c1.6-2.2,2.7-4.6,3.2-7.3
	c0.2-1.5-0.5-2.9-1.8-3.6l-5.3-2.9c-2-1.1-4.2-1.6-6.5-1.6H801c-1.1,0-2,0.7-2.3,1.7l-0.8,2.8C794.7,56.6,791.5,54.6,788.2,53.2z"/>
<path d="M854.7,98.7l-3.7,2.2c-10.3-12.5-20.2,3.9-27.8,29.7c-1.2,4-2.2,9.2-4.4,13.3l-5.4,0.3c5.6-24.4,7.9-46.6,2.8-62.2
	c-2.7-4.2-5.4-7.6-8.1-9.8l3.4-0.4c1.6-0.2,3.1-1.2,3.8-2.7l0.4-0.9L849,85.3C852.5,89.5,854.4,94,854.7,98.7z"/>
<path d="M550.5,84.1l45.7,4.3c2.6,0.2,4.4,2.8,3.7,5.3l-6.6,25.1h-56.9l8.5-25.4L550.5,84.1z"/>
<path d="M649.5,25.3c11.5-7.5,31.2-9.8,52.8-11.1c-67.4-3.8-124.9-3.7-154.1,7.6C582.2,17.8,616,18.8,649.5,25.3z"/>
<path d="M550.5,84.1l7.2-11.9l31.9-4.4c4-0.5,7.7,0.1,10.7-2.6c17.5-15.1,33.7-28.9,49.3-39.8c1.9-1.4,11.2-8.3,45-10.6
	c9.4-0.9,21.5,0.7,26.3,1.2c48.6,4.9,69,34.8,77.8,40.8l-0.8,2.8c0,0-22.9-25.9-53.3-35.3c-11.3-3.5-23.3-3.5-34-3.5
	c-18.4,0-23.6-0.6-31.9,3.6c-4,1.3-17,14.2-24.4,21.7c-3,3.1-3.4,7.9-0.9,11.5l10.4,14.7l12.5,12.4c17.3,25.5,29.4,49.3,32.8,70.2
	c0.6,4.8,3.2,6.7,7.3,6.5l96.4-17.1l6-0.3l-2.6,8.2c-15.8,1.2-73.4,14.5-121.6,25.1c21.2-41.5-15.1-75.5-39.5-45.2
	c-5.9-5.9-12-10.9-18.1-14.8l-43.6,1.8l6.7-25.5c0.6-2.3-1-4.7-3.4-4.9L550.5,84.1z"/>
<path d="M253,163.7l-4.2,10.4l106.4-30.6c4.1-1.2,7.1-4.5,7.9-8.7c7.1-35.8,19.1-51.3,28.2-37.4l2.3-3.2v-6.7
	c1.9-1.7,6.1-3.4,10.3-5.1c-1.3-6.3-3-11.7-5.6-15.2l1.1-4.5l-3.7-5.1c-2.3-3.2-6-5-9.9-5h-2c-5.4-7.4-35.4-30.9-47-35.2
	c-8.2-3.4-52.4-8.4-63.4,4.8c-13.1,17.2-21.1,34.9-27.5,41.7l8.3,3.3c8.4-17.1,16.4-33.1,24.4-41.1c7.7-7,14.3-8.7,29.8-9.1
	c25.7,0.4,37.8,6.9,54.4,22.4c3.6,3.2,9.2,11.4,9.8,18.5l2.8,9.7c-2.1,28.7-11.2,52.7-22.5,68.6C320.2,145.5,286.8,154.8,253,163.7z
	"/>
<path class="st0" d="M404.1,82.3c-4.1,1.5-7.6,3.1-10.3,5.1v6.7l-2.3,3.2c5.1,9,3.8,19.7,0.8,30.9c1.7-1.6,3.3-3.2,4.8-4.8
	c5.3-5.4,8.2-12.6,8.4-20.2C405.5,95.5,405.2,88.4,404.1,82.3z"/>
</svg>
