<?xml version="1.0"?>
<!DOCTYPE svg PUBLIC "-//W3C//DTD SVG 1.1//EN" "http://www.w3.org/Graphics/SVG/1.1/DTD/svg11.dtd">
<svg xmlns="http://www.w3.org/2000/svg" class="svg_rapid" id="rapid" data-name="Layer 1" viewBox="0 0 860 272">
<defs>
    <style>
        <style type="text/css">
                .svg_rapid {
                    position: absolute;
                    left: 0;
                }
                .active {
                  fill: #f5f5f5;
                  fill-opacity: 0.1;
                  fill-rule: evenodd;
                  stroke: #ccc;
                  stroke-width: 1px;
                  stroke-linecap: butt;
                  stroke-linejoin: round;
                  stroke-opacity: 1;
                  cursor: pointer;
                }
                .active:hover, .active.highlight {
                  fill: #4ba82e;
                  fill-opacity: 0.2;
                }
                .selected {
                  fill: #4ba82e;
                  fill-opacity: 0.3!important;
                }
                .blocked {
                    fill: none;
                    cursor: default;
                }
                </style>
    </style>
    </defs>
<title>rapid</title>
<rect class="blocked" x="0.5" y="0.5" width="860" height="271"/>
<g id="5d53d254-b8e9-4798-b933-7df0c1d5e9c9" data-name="1" class="07b2bf00-f2fc-4277-94dd-a6820c517e7f">
    <path id="svg_bumper_front" class="active" d="M669.52,664.51S666,681.64,663,682.56s-72.54,6.52-72.54,6.52a63.83,63.83,0,0,1-21.06,5.52c-11.79.92-60.18-.71-79.73-8.86-0.78-.32-4.35-8.52-4.35-8.52l-11.87-8.86s-3.89,7.73-3.89,9.74,0.71,23.86.71,23.86L472.62,724s6.35,13.81,10.53,14.25c3.16,0.33,32.93,5.95,70.58,10.78,12.16,1.56,37.57,5.52,41.37,5.52,48-.09,78.83-5.31,78.83-5.31s10.89-48.14,20.5-63.35Z" transform="translate(-458.5 -524.41)"/>
    <path id="svg_fender_l_front" class="active" d="M741.65,715.95l-3.38-81-4.76-8.65a31.61,31.61,0,0,1-.63-12.66l-7.52-6.77a16.92,16.92,0,0,1-12,9.65S714.63,634.37,711,636c-36.26,16.49-52,24.29-52,24.29l10.53,1.21v3l24.91,21.39s9.17-14.9,19.12-15.09c25.34-.48,21.08,48,21.08,48Z" transform="translate(-458.5 -524.41)"/>
    <path id="svg_hood" class="active" d="M713.32,616.53s-118.4,1.72-158.46-8c-0.87-.21-59.47,26.8-71.87,40.28-1.67,1.82,4.51,6.18,4.51,6.18l28.25,7.36,5.85,8.36,13.54,1.5L544,666l115-5.68s15.7-7.8,52-24.29C714.63,634.37,713.32,616.53,713.32,616.53Z" transform="translate(-458.5 -524.41)"/>
    <path id="svg_windshield" class="active primitive selected" d="M554.86,608.51c40.06,9.74,158.46,8,158.46,8a16.92,16.92,0,0,0,12-9.65l25.25-46.4s-120.06-3.78-126.92-2.11c-11.85,2.88-68.82,50.14-68.82,50.14C555.15,608.4,554.82,608.5,554.86,608.51Z" transform="translate(-458.5 -524.41)"/>
    <path id="svg_top" class="active" d="M765.59,543.57v-2.15h-5.27l-6.77,1.27s-75.34-3.22-118.89,10.24a133.54,133.54,0,0,0-12.07,5.78s0.76-.27,1.09-0.34c6.86-1.67,126.92,2.11,126.92,2.11s15.62-17.78,61.88-11C812.48,549.47,787.95,543.57,765.59,543.57Z" transform="translate(-458.5 -524.41)"/>
    <path id="svg_mirror_l" class="active" d="M744.91,620.3s30.92-1.59,32.72-4.76,2.63-9.72,2.13-11.41-14.23-5.2-18.43-5.2-11.16,1.63-11.16,1.63l-8.77-8.31c-4.89,11.25-8.53,21.41-8.53,21.41a31.29,31.29,0,0,0,.46,12Z" transform="translate(-458.5 -524.41)"/>
    <path id="svg_door_l_front_choice" class="choice" d="M803,614.78l-4.64-10.91s-15.94-50.27-16-50.27-15.6,0-26.43,12.24c-4.71,5.32-10.11,16.3-14.5,26.39l8.77,8.31s7-1.63,11.16-1.63,17.93,3.51,18.43,5.2-0.33,8.23-2.13,11.41-32.72,4.76-32.72,4.76l-11.57,5.35c0.1,0.43.17,0.67,0.17,0.67l4.76,8.65,3.38,81,62.18-25.2a67.61,67.61,0,0,0,0-7.4,36.48,36.48,0,0,0-2-7.15s2.67-13.54,2.88-17.55S803.58,616.26,803,614.78Z" transform="translate(-458.5 -524.41)"/>
    <path id="svg_door_l_back_choice" class="choice" d="M847.62,602.66l-2.09-10c-3.22-14.08-18.22-30.17-31.67-35.9s-31.53-3.13-31.53-3.13,16,50.27,16,50.27L803,614.78c0.63,1.48,2,39.87,1.76,43.88s-2.88,17.55-2.88,17.55a36.48,36.48,0,0,1,2,7.15,67.61,67.61,0,0,1,0,7.4s29.05-11.25,31-13.82c6.32-8.21,13.69-44.93,13.69-44.93S848.11,605,847.62,602.66Z" transform="translate(-458.5 -524.41)"/>
    <path id="svg_fender_l_back" class="active" d="M868.52,587.58c-3.38-4.64-14.79-7.4-14.79-7.4S832.41,558.87,819.5,553l-14.77,1.06h0a43.47,43.47,0,0,1,9.13,2.65c13.46,5.72,28.46,21.81,31.67,35.9l2.09,10c0.49,2.33.92,29.33,0.92,29.33s-6.8,33.89-12.94,43.83l5-.62s7.74-42.06,17.67-43.5c5.6-.81,8.27,5.14,8.27,5.14a49.14,49.14,0,0,1,2.63-8.9c1.76-4.14,7.15-9,7.27-11.66S871.9,592.21,868.52,587.58Z" transform="translate(-458.5 -524.41)"/>
    <ellipse id="disk1" class="active" cx="707.86" cy="725.86" rx="31.88" ry="15.72" transform="translate(-507.89 875.62) rotate(-87.4)"/>
    <ellipse id="disk2" class="active" cx="854.72" cy="672.08" rx="23" ry="8.93" transform="translate(-313.99 970.98) rotate(-87.4)"/>
</g>
<g id="7e0bd7e0-df32-4207-bec9-62ff229b35af" data-name="2" class="07b2bf00-f2fc-4277-94dd-a6820c517e7f">
    <path id="svg_bumper_back" class="active" d="M1120.26,684.94c-2.73-.94-31.82-28.09-31.82-28.09s-1.59,14.26-12.2,17.69-40.19,1.3-40.19,1.3-6.65,13.08-14,13.41-94.82-9.49-99.72-11.94-9-13.87-9-13.87l-12.57-3.26s-3.66,9.63-4.73,17.14,1.31,25,1.31,25-0.28,6.78,3.26,7.51c82.72,16.91,131.7,15.67,145.08,18.44s34.44,17.14,34.44,17.14,38.55-2.17,40.15-2.77c7.34-2.78,7.67-42.27,24-58.14C1144.32,684.45,1123,685.88,1120.26,684.94Z" transform="translate(-458.5 -524.41)"/>
    <path id="svg_boot" class="active" d="M913.37,663.44s4.08,11.42,9,13.87,92.37,12.26,99.72,11.94,14-13.41,14-13.41,6.4-43.57,16.69-51.24,33-11.1,33-11.1l-142.8-9s-29.54,10-31.66,12.24S913,661.48,913,661.48Z" transform="translate(-458.5 -524.41)"/>
    <path id="svg_window_rear" class="active" d="M1085.71,613.5s32.65-28.81,49-46.35c3.26-3.51-106.36-8.32-117-6.69s-61.53,32.15-74.75,44.06l141.83,8.92Z" transform="translate(-458.5 -524.41)"/>
    <path id="svg_fender_r_back" class="active" d="M1175.87,665.64c-4.16-12.81-17.22-32.72-17.22-32.72l-10-12.57s-8.68-9.63-7.18-18c2.8-15.59,16.77-34,16.77-34l-23.73-1.63h0c0.19,0.14.24,0.27,0.12,0.4-16.31,17.54-49,46.35-49,46.35s-22.68,3.43-33,11.1a17,17,0,0,0-4.24,5.39l43.81,13.21-3.87,13.65s29.09,27.15,31.82,28.09,24.05-.49,24.05-0.49,4-9.75,14.83-11.79c20.17-3.79,22.26,42.45,22.26,42.45l6.38-2S1180,678.45,1175.87,665.64Z" transform="translate(-458.5 -524.41)"/>
    <ellipse id="svg_disk3" class="active" cx="1154.95" cy="727.17" rx="31.13" ry="15.42" transform="translate(-124.47 1293.07) rotate(-85.22)"/>
    <ellipse id="svg_disk4" class="active" cx="1296.66" cy="675.02" rx="22.81" ry="8.96" transform="translate(57.41 1386.49) rotate(-85.22)"/>
    <path id="svg_door_r_back_choice" class="choice" d="M1231.93,662.21c0.2-4.81-1.79-27.3-2.45-30.68s-6-16.09-7.77-17.35a35.52,35.52,0,0,0-6.35-2.86s-20.89-50.94-21.46-50.94c-28.11,0-36.07,8.61-36.07,8.61-2.4,3.29-13.82,19.49-16.32,33.42-1.49,8.32,7.18,18,7.18,18l10,12.57s13.06,19.91,17.22,32.72,11.92,47.49,11.92,47.49L1230,698.28l-1.71-13.71S1231.73,667,1231.93,662.21Z" transform="translate(-458.5 -524.41)"/>
    <path id="svg_top1" class="active" d="M1093.46,549.14c-6.12.26-11.74,0.57-16.93,0.92l-2-2.82-9.06-1.36,0.68,5c-40.56,3.55-47.78,9.52-47.78,9.52,13.35-1.33,111.62,3,116.22,6.37h0s34.23-15,69.73-11.18C1204.29,555.56,1158.33,546.38,1093.46,549.14Z" transform="translate(-458.5 -524.41)"/>
    <path id="svg_mirror_r" class="active" d="M1271.18,592.77c-4.65-.41-6.2,4.08-6.2,4.08l-7.75-6,6.53,18.28,4.16,0.49L1268,608h12.32c2.86-1.14,4-7.34,4-10.2S1275.83,593.18,1271.18,592.77Z" transform="translate(-458.5 -524.41)"/>
    <path id="svg_door_r_front_choice" class="choice" d="M1272.77,610.52s-0.5-.85-1.56-2.49H1268l-0.08,1.63-4.16-.49-6.53-18.28,3.64,2.8c-1.57-2-3.3-4.2-5.23-6.55-12.24-14.93-42.47-26.77-42.47-26.77h-19.26c0.57,0,21.46,50.94,21.46,50.94a35.52,35.52,0,0,1,6.35,2.86c1.75,1.27,7.11,14,7.77,17.35s2.65,25.87,2.45,30.68-3.67,22.36-3.67,22.36l1.71,13.71L1279,682.54c1.1-2.94,4.62-34.46,3.52-41.61S1272.77,610.52,1272.77,610.52Z" transform="translate(-458.5 -524.41)"/>
    <path id="svg_fender_r_front" class="active" d="M1304.66,625c-3.45-3.6-8-10.83-8-10.83l-13.39-10.25c-0.64,1.9-1.6,3.56-2.95,4.09h-9.11c1.06,1.63,1.56,2.49,1.56,2.49s8.69,23.26,9.79,30.41-2.42,38.68-3.52,41.61l3.23-1s7.27-47.13,18.16-46.53c6.61,0.37,8.45,14.69,8.45,14.69l3.18-4.65-0.73-14S1306.71,627.16,1304.66,625Z" transform="translate(-458.5 -524.41)"/>
</g>
</svg>
