<?xml version="1.0"?>
<!DOCTYPE svg PUBLIC "-//W3C//DTD SVG 1.1//EN" "http://www.w3.org/Graphics/SVG/1.1/DTD/svg11.dtd">
<svg xmlns="http://www.w3.org/2000/svg" class="svg_superb" id="superb" data-name="Layer 1" viewBox="0 0 862 240.28">
<defs>
            <style type="text/css">
                    .svg_superb {
                        position: absolute;
                        left: 0;
                        top: 1px;
                    }
                    .active {
                      fill: #f5f5f5;
                      fill-opacity: 0.1;
                      fill-rule: evenodd;
                      stroke: #ccc;
                      stroke-width: 1px;
                      stroke-linecap: butt;
                      stroke-linejoin: round;
                      stroke-opacity: 1;
                      cursor: pointer;
                    }
                    .active:hover, .active.highlight {
                      fill: #4ba82e;
                      fill-opacity: 0.2;
                    }
                    .selected {
                      fill: #4ba82e;
                      fill-opacity: 0.3!important;
                    }
                    .blocked {
                        fill: none;
                        cursor: default;
                    }
                    </style>
        </defs>
<title>superb</title>
<rect class="blocked" x="0.5" y="0.5" width="861" height="239.28"/>
<g id="7d403427-6436-4afc-8d4c-000407e7a4b7" data-name="1">
    <path id="svg_hood" class="active" d="M468.76,572.77c-17.59-1.39-72.6,30.24-74.68,37.49-0.93,3.24,1.1,8.83,2.31,9.57s30.4,7.25,30.4,7.25l4.17,4.78,13.27,0.62,10.8-5.25,38.73,3.09s47-5.44,52.92-6.33,51.72-27.62,77.15-43.51C626.3,578.94,503.61,575.52,468.76,572.77Z" transform="translate(-361.78 -510.39)"/>
    <path id="svg_windshield" class="active primitive selected" d="M645.82,529c-0.23-1-110.32-2.79-115.64-2.33s-63.43,46-63.43,46h0a16.5,16.5,0,0,1,2,0c34.85,2.75,157.54,6.17,155.07,7.71C623.83,580.48,646,530.08,645.82,529Z" transform="translate(-361.78 -510.39)"/>
    <path id="svg_top" class="active" d="M662.25,515.14l-1.08-2h-2.08l-0.23,1.6s-45.75.26-79.62,1.54c-36.72,1.39-49.53,10.34-49.53,10.34l-0.09.22a2.51,2.51,0,0,1,.56-0.14c5.32-.46,115.41,1.29,115.64,2.33,0,0,13.56-12.57,51.69-10.12C697.51,518.92,679.15,515.06,662.25,515.14Z" transform="translate(-361.78 -510.39)"/>
    <path id="svg_fender_l_front" class="active" d="M632.94,579.55a12.91,12.91,0,0,1,.31-2.28l-8.22.5-1.19,2.71c-22.74,14.21-61.79,37.08-74,42.4,0,0,20.77-4.09,21.85-3.67s3.09,4,3.09,4v2c0.48,0.32,20.38,6.12,21,10.82h0s6.44-12,20.53-13.27c23.72-2.21,17.36,50.3,17.36,50.3l8-2.31L637.41,593S632.86,586,632.94,579.55Z" transform="translate(-361.78 -510.39)"/>
    <path id="svg_bumper_front" class="active" d="M574.77,625.23s-9.57,22.53-13.35,24.38-19.75-3.7-27.54-3.86-37.34,3.24-38.11,2.62c-0.6-.48,8.89-13.81,13.22-19.82l-9.07,1.06-18.35,22.31s-4.94,5.55-10.18,5.79-66.66-6.4-70.13-8.56-4.4-4.17-4.86-7.41c-0.34-2.41,2.88-14.59,4.54-20.65-1.52-.38-2.76-0.7-3.56-0.93l-3.52,14.4-7.41-7.17s-3.94,6.56-4.28,10.18c-0.46,4.86.35,18.57,0.35,18.57l3,5,0.23,6.48s-2.82,5.4-2.55,10.18,6,9,6,9,14.12,4.86,47,9.34c31.59,4.31,52.74,5.7,52.74,5.7l26.56,4.17S570,707,575.31,702.14s12-51.5,20.25-65C598.53,632.32,575.29,625.57,574.77,625.23Z" transform="translate(-361.78 -510.39)"/>
    <path id="svg_door_l_front_choice" class="choice" d="M699,634.95c0.16-1.71,2.25-20.07,2.16-23.14s-0.62-30.86-.93-33.48S694,566.13,694,566.13l-15.12-42.89c-18.36.15-25.85,6.48-25.85,6.48-3.33,4-9.12,16.89-13.65,28.68l4.47,9.89s9.37-7,11-7.1,18.82,1.35,21.6,6.29-3.09,9.6-3.09,9.6l-4.78,2.16L634,580.48H633c0.33,6.2,4.45,12.5,4.45,12.5l4.32,77.77,59.4-23.46S698.82,636.66,699,634.95Z" transform="translate(-361.78 -510.39)"/>
    <path id="svg_mirror_l" class="active" d="M676.45,567.48c-2.78-4.93-20-6.37-21.6-6.29s-11,7.1-11,7.1l-4.47-9.89c-3.64,9.49-6.45,18.27-6.49,21.16,0,0.31,0,.62,0,0.93H634l34.56-1.24,4.78-2.16S679.22,572.41,676.45,567.48Z" transform="translate(-361.78 -510.39)"/>
    <path id="svg_door_l_back_choice" class="choice" d="M733.38,544.76c-3.91-4.63-18.63-19.21-31.53-21.52a62.87,62.87,0,0,0-22.93,0L694,566.13s5.86,9.57,6.17,12.19,0.84,30.41.93,33.48-2,21.43-2.16,23.14,2.16,12.34,2.16,12.34l31.63-14.81s2.37-17.6,4.32-23.14,7.06-26.85,7.17-34.83S738.2,550.47,733.38,544.76Z" transform="translate(-361.78 -510.39)"/>
    <path id="svg_fender_l_back" class="active" d="M763.12,563.51s0.23-8.33-2.55-10c-4.44-2.59-10.18-2.49-11.34-3.7-9-9.39-38.43-27.07-38.43-27.07l-9.69.33,0.73,0.12c12.9,2.31,27.62,16.89,31.53,21.52,4.82,5.71,11,21.76,10.88,29.74s-5.22,29.29-7.17,34.83-4.32,23.14-4.32,23.14l3-1.41s6-40.95,18.29-41.41c9.26-.35,10.42,26,10.42,26s3.05-4.06,3.12-6c0.3-8.1,2.08-19.61,2.2-24.93S763.12,563.51,763.12,563.51Z" transform="translate(-361.78 -510.39)"/>
    <ellipse id="svg_disk1" class="active" cx="610.74" cy="673.76" rx="32.42" ry="16.44" transform="translate(-468.81 721.72) rotate(-85.69)"/>
    <ellipse id="svg_disk2" class="active" cx="750.76" cy="625.75" rx="23.36" ry="9.29" transform="translate(-291.46 816.94) rotate(-85.69)"/>
</g>
<g id="d48f2a90-1873-459c-87e7-e8d36c2a0c6b" data-name="2">
    <path id="svg_bumper_back" class="active" d="M1029.67,629.26l-39-3.47-59.08-1.23s-8.79,16.77-11.17,17.84-98.7-10-104.79-11.11-7.17-18.52-7.17-18.52l-6.93-1.08s-5.74,15.06-6,18.76,3.47,22.82,3.47,22.82l1,2.15s-1.55,3.58-1.55,4.9a3.4,3.4,0,0,0,2.15,3.58c36.67,14.51,148.28,19.36,148.28,19.36s15.72,6.29,18.52,12.55c1.55,3.47,44.5-2.92,47.08-8.24,13.14-27.12,1.83-25.93,21.87-54.84Z" transform="translate(-361.78 -510.39)"/>
    <path id="svg_boot" class="active" d="M815.66,631.29c6.09,1.08,102.4,12.19,104.79,11.11s11.17-17.84,11.17-17.84l2.17-12s7.17-23.7,9.88-25.49,33.62-11,33.62-11l-137.49-8s-27.08,8.8-29.28,10.83-3.38,10.51-3.38,10.51l1.35,23.3S809.57,630.22,815.66,631.29Z" transform="translate(-361.78 -510.39)"/>
    <path id="svg_window_rear" class="active" d="M912.21,527c-6.57,1.43-72.41,41.14-72.41,41.14l137.49,8s49-41.1,49.39-44.45S918.78,525.55,912.21,527Z" transform="translate(-361.78 -510.39)"/>
    <path id="svg_top1" class="active" d="M971.71,515.39l-2.39-1.59L968.21,516s-33.14,2-50.82,8.6L912.21,527c6.57-1.43,114.83,1.31,114.47,4.66,0,0,17.29-17.29,70-12.67C1096.7,519,1070.26,513.21,971.71,515.39Z" transform="translate(-361.78 -510.39)"/>
    <path id="svg_fender_r_back" class="active" d="M1080.21,662.91c-1.75-60.22-43.73-88.56-45.09-90.49a40.11,40.11,0,0,1-4.78-12.75c-0.8-4.78,16.41-28,16.41-28h-20.07c-0.36,3.35-49.39,44.45-49.39,44.45s-30.91,9.2-33.62,11c-1.29.85-3.59,6.68-5.65,12.54,0,0,54.16-3.94,56.79-1.39S990,625.78,990,625.78h0.69l39,3.47,6.69,3.47s6.25-10.6,16.29-10.6c25.65,0,18.09,43.45,18.09,43.45Z" transform="translate(-361.78 -510.39)"/>
    <path id="svg_door_r_back_choice" class="choice" d="M1121.71,594.81c-0.68-3.73-2.35-13.88-4.06-16.81s-9.16-10.28-9.16-10.28l-21.95-45.42s-21.59-2.13-39.79,9.34c0,0-17.21,23.26-16.41,28a40.11,40.11,0,0,0,4.78,12.75c1.35,1.93,43.33,30.27,45.09,90.49l40.15-12.34-2.27-11.27,2.67-14.78S1122.39,598.54,1121.71,594.81Z" transform="translate(-361.78 -510.39)"/>
    <path id="svg_mirror_r" class="active" d="M1150.83,550.16l-4.06,4.54-7.41-3.58,6.45,12.79,3.07-.64s10.67,2.43,12,1.71,4.06-5.62,4.42-8.72S1150.83,550.16,1150.83,550.16Z" transform="translate(-361.78 -510.39)"/>
    <path id="svg_door_r_front_choice" class="choice" d="M1165.44,570.67l-4.78-3.66-1.85-2c-3.49-.32-9.94-1.78-9.94-1.78l-3.07.64-6.45-12.79,7.41,3.58,1.1-1.23-3.77-4s-6.85-8.13-25.49-19.28-32.06-7.9-32.06-7.9l21.95,45.42s7.45,7.35,9.16,10.28,3.39,13.08,4.06,16.81-1,29.71-1,29.71l-2.67,14.78,2.27,11.27,44.57-15.51s4.34-37.94,4.66-42.56S1167.39,572.17,1165.44,570.67Z" transform="translate(-361.78 -510.39)"/>
    <path id="svg_fender_r_front" class="active" d="M1194.92,581.83s-12.94-9.12-13.86-10a8.92,8.92,0,0,1-1.55-2.87c-3.34-3.9-15.77-6.93-15.77-6.93l-0.4-.29a9.44,9.44,0,0,1-2.46,3.27,4.91,4.91,0,0,1-2.08.07h0l1.85,2,4.78,3.66c2,1.49,4.46,17.21,4.14,21.83s-4.66,42.56-4.66,42.56l4.69-2.09s3.82-44.3,18.93-47.26c7.06-1.38,9.48,12.67,9.48,12.67l1.31-.31C1200.73,592.74,1194.92,581.83,1194.92,581.83Z" transform="translate(-361.78 -510.39)"/>
    <ellipse id="svg_disk3" class="active" cx="1048.97" cy="670.76" rx="31.74" ry="15.35" transform="translate(-57.91 1157.91) rotate(-85.84)"/>
    <ellipse id="svg_disk4" class="active" cx="1184.92" cy="621.05" rx="23.12" ry="9.18" transform="translate(117.78 1247.41) rotate(-85.84)"/>
</g>
</svg>
