<svg id="fabia" class="svg_fabia" data-name="Layer 1" xmlns="http://www.w3.org/2000/svg" viewBox="0 0 860 220"><defs><style><style>.svg_fabia{position:absolute;left:-2px;top:25px}.active{fill:#f5f5f5;fill-opacity:.1;fill-rule:evenodd;stroke:#ccc;stroke-width:1px;stroke-linecap:butt;stroke-linejoin:round;stroke-opacity:1;cursor:pointer}.active.highlight,.active:hover,.selected{fill:#4ba82e;fill-opacity:.2}.selected{fill-opacity:.3!important}.blocked{fill:none;cursor:default}</style></style></defs><title>fabia</title><path class="blocked" d="M.5.5h860v220H.5z"/><path class="active" d="M899 682.32l-.41 5.87a239.43 239.43 0 0 0-33.28 39.69s-9.8 7.12-11.31 9.58-1 29.15.68 43.06 8.87 13.64 8.87 13.64 25.81 2.32 43.51 3.41 58.24 2 58.24 2 4.79-3.35 6.41-14.19l3.41-22.78s11.29-20.56 28.75-25.2c0 0 18.06-48.25 14.77-58.14C1016.6 673.18 905 674 899 682.32z" transform="translate(-403.09 -668.72)"/><path id="svg_boot" class="active" d="M938.92 542.32l-.41 5.87a239.4 239.4 0 0 0-33.28 39.69s-9.82 7.13-11.32 9.59-1 29.15.68 43.06 8.87 13.64 8.87 13.64 25.81 2.32 43.51 3.41 58.24 2 58.24 2 4.79-3.35 6.41-14.19l3.41-22.78s11.29-20.56 28.75-25.2c0 0 18.06-48.25 14.77-58.14-2.06-6.09-113.63-5.27-119.63 3.05z" transform="translate(-443.48 -529.22)"/><path id="svg_bumper_back" class="active" d="M1053.35 636c-7.89 7.33-33.24 9.37-41.82 9.86-1.69 10.46-6.33 13.74-6.33 13.74s-40.51-1-58.24-2-43.51-3.41-43.51-3.41-7.23.27-8.87-13.64c0-.37-.09-.75-.13-1.13a7.93 7.93 0 0 1-3.83.36c-4-.77-8-5-8-5l.1 16.22-3.14 7.23s-1.09 13.37 2.86 23.73 14 18.38 16.09 19.1c19.1 6.41 144 13 150 9.27s10.43-11 10.43-11C1066.72 669.71 1078 662 1078 662c1.06-3.34-24.65-26-24.65-26z" transform="translate(-443.48 -529.22)"/><path id="svg_top1" class="active" d="M1089.66 533c-25.83-.94-48.31-.87-67.32-.28l-2.3-2.85h-4.76l-.16 3.1c-32.56 1.29-53.8 4.05-62.89 5.45 31-4.46 104.65-4.05 106.31.92.58 1.73.5 4.65 0 8.28 0 0 17.22-6.64 131.38-1.73-.03-.03-7.43-9.54-100.26-12.89z" transform="translate(-443.48 -529.22)"/><path id="svg_fender_r_back" class="active" d="M1092.91 604.79s-3.27-2.87-6.14-9.41-5.59-40.92-10.08-50.19c-14.61 1-18.17 2.41-18.18 2.41-2.46 17.05-14.74 49.87-14.74 49.87l25.27 7.33-15.69 31.2s25.71 22.64 24.69 26c0 0 4.64-7.57 20.6-10.3s23.6 24.82 23.6 24.82l2 20.53 7.44-.62-11.18-38.05z" transform="translate(-443.48 -529.22)"/><path id="svg_door_r_back_choice" class="choice" d="M1178.43 609l-7-12.27-19.24-52.19c-38.78-1-61.95-.33-75.54.64 4.49 9.27 7.22 43.65 10.08 50.19s6.14 9.41 6.14 9.41l27.55 53.61 11.18 38.05 50.06-4.78-.27-5.46s-.55-4 1.5-31-4.46-46.2-4.46-46.2z" transform="translate(-443.48 -529.22)"/><path id="svg_mirror_r" class="active" d="M1250.45 615.7l-7.77-13.37-2.27-2.91c-3.36.14-7.53-.14-7.53-.14l-1.07 1.28h-5.06l-4.45-19.9 5.5 3c-6.49-7.13-25.56-27.07-45.27-38.06 0 0-21.09-.77-30.28-1l19.24 52.19 7 12.27s6.55 19.23 4.5 46.24-1.5 31-1.5 31l.27 5.46 65.74-4.91c9.36-40.46 2.95-71.15 2.95-71.15z" transform="translate(-443.48 -529.22)"/><path id="svg_door_r_front_choice" class="choice" d="M1236.81 581.79c-5-.36-6.8 3-6.8 3l-7.72-4.14 4.45 19.9h5.06l1.07-1.28a66.43 66.43 0 0 0 9.41 0c3.38-.41 8.13 0 7.67-7.67-.27-4.6-8.18-9.45-13.14-9.81z" transform="translate(-443.48 -529.22)"/><path id="svg_fender_r_front" class="active" d="M1295.73 637a100.88 100.88 0 0 1-7.64-15c-16.64-8.18-40.65-22.37-40.65-22.37a5 5 0 0 1-2.73 2.18 3.26 3.26 0 0 1-2.62-.19l.57.73 7.77 13.37s6.41 30.69-3 71.06l5.13.27s5.92-48.56 27.6-48.56 13.84 49.64 13.84 49.64l4.64-7.23s1.87-36.28-2.91-43.9z" transform="translate(-443.48 -529.22)"/><ellipse id="svg_disk1" class="active" cx="233.69" cy="175.42" rx="18.27" ry="32"/><ellipse id="svg_disk2" class="active" cx="651.07" cy="175.42" rx="19.17" ry="32"/><ellipse id="svg_disk3" class="active" cx="832.52" cy="154.82" rx="14.13" ry="27.65"/><ellipse id="svg_disk4" class="active" cx="404.48" cy="151.33" rx="13.87" ry="27.43"/><path id="svg_windshield" class="active primitive selected" d="M591.5 542.95c-25.14 16.44-60.85 52.09-60.7 53.2s150.51 6.44 151.4 5.9 32.74-58.07 32.74-59.09-116.35-4.65-123.44-.01z" transform="translate(-443.48 -529.22)"/><path id="svg_hood" class="active" d="M530.8 596.14a3.84 3.84 0 0 1 .81-1.11 360.12 360.12 0 0 0-69.55 34c-2.32 1.47 0 11.7 0 11.7l31.92 4.4s2.46 7 7.64 7.37 11.18-5.86 11.18-5.86l54.93-.82s11.66-11.36 59.84-16c0 0 31.92-6.68 49.72-19L682 603l.2-1c-10 .23-151.2-4.79-151.4-5.86z" transform="translate(-443.48 -529.22)"/><path id="svg_bumper_front" class="active" d="M630.24 652.49c-38.46 19.9-76 15-75.91 14 1-8.12 9.46-16.9 15.06-21.92a12.93 12.93 0 0 0-1.65 1.25l-9.41.14c-9.2 16.66-21.18 23.59-21.18 23.59s-23.29.29-40.31-.61a148.76 148.76 0 0 1-30.89-5.11l1.41-22.36-5.29-.73s-.11-.48-.26-1.25c-.09 7.9-.32 22-.77 22.08-5.58.77-10.43-8-11-8s-5.61 17.29-2.66 24.76c1.61 4.06 3.07 3.68 3.07 3.68s-3.89 17.39 0 24.35 135.44 10.43 135.44 10.43a53.3 53.3 0 0 0 9.62 4.09c5.32 1.64 45.83-1.84 45.83-1.84s6.13-40.92 16.06-54.22c-.06 0-24.53-13.69-27.16-12.33z" transform="translate(-443.48 -529.22)"/><path id="svg_fender_l_front" class="active" d="M710.85 699.39s-1.49-69.1-6.14-81l-6.14-15.75-16.37-.64-.2 1-4.71 7.77c-17.8 12.34-49.72 19-49.72 19l11.87 4.3-8.44 18.34c4.93.44 26.32 12.4 26.32 12.4s6.45-17.79 27.52-14.52 19.44 50.33 19.44 50.33z" transform="translate(-443.48 -529.22)"/><path id="svg_top" class="active" d="M729.4 531.22c-124.1-2.36-137.29 9.93-138.68 12.25l.78-.51c6.83-4.47 115-1.28 123-.12 33.82-6.4 103.59.11 109.73 3.74-.04-.02 1.77-13.52-94.83-15.36z" transform="translate(-443.48 -529.22)"/><path id="svg_mirror_l" class="active" d="M731.66 578.63c-15-.61-17.75 7-17.75 7l-2.69-10.76-12.66 27.74L713 602l2.46-3 11.66 1.23s21.64 2.06 21.69-9.67c.02-8.19-7.39-11.56-17.15-11.93z" transform="translate(-443.48 -529.22)"/><path id="svg_door_l_front_choice" class="choice" d="M782.32 681.8s3.58-61.51 0-78l-4.09-11.18-13.64-52.3a327.94 327.94 0 0 0-38 .89l-15.37 33.7 2.69 10.76s2.77-7.62 17.75-7c9.75.4 17.17 3.73 17.13 12 0 11.73-21.69 9.67-21.69 9.67L715.45 599l-2.45 3-14.42.58 6.14 15.75c4.65 11.92 6.14 81 6.14 81l72.29-11.73z" transform="translate(-443.48 -529.22)"/><path id="svg_door_l_back_choice" class="choice" d="M837.7 587.55l-19.63-42.65c-10.74-2-33.19-4.16-55.92-4.66l2.43.06 13.64 52.3 4.09 11.18c3.58 16.5 0 78 0 78l.82 5.86s32.53-5.59 36.28-6.14 27.69-66.29 24.82-85.52z" transform="translate(-443.48 -529.22)"/><path id="svg_fender_l_back" class="active" d="M864.5 618.72c-3.33-15.17-9-20.39-10-22.64s1.5-5.66 1.5-5.66l-6.75-6.55c-6.27-13.91-25-37.3-25-37.3l-1.54-.61c-2.05-.63-6.22-1.36-4.58-1.05l19.62 42.65 6.55 8.46c1.61 10.8-5.23 36.26-12.21 56.61 5.28-8 12.25-16.17 18.75-16.65 6.78-.51 10 8.25 10 8.25s3.79-24.9 3.66-25.51z" transform="translate(-443.48 -529.22)"/></svg>