<svg xmlns="http://www.w3.org/2000/svg" class="svg_octavia_rs" id="octavia_rs" data-name="Layer 1" viewBox="0 0 861 236.17"><defs><style>.svg_octavia_rs{position:absolute;left:0;top:0}.active{fill:#f5f5f5;fill-opacity:.1;fill-rule:evenodd;stroke:#ccc;stroke-width:1px;stroke-linecap:butt;stroke-linejoin:round;stroke-opacity:1;cursor:pointer}.active.highlight,.active:hover,.selected{fill:#4ba82e;fill-opacity:.2}.selected{fill-opacity:.3!important}.blocked{fill:none;cursor:default}</style></defs><title>octavia_rs</title><path class="blocked" d="M.5.67h860v235H.5z"/><g id="3f524142-6048-40e5-a5e0-45aa4c8562bc" data-name="1" class="b05a3e80-ee44-4838-9360-6f2bb68c2235"><path id="svg_hood" class="active" d="M530.1 599.72s-21.67 7.47-68.65 34.23c-2.62 1.49-.62 6.27 0 7.28.79 1.28 5.71 6.31 8.74 7.1s25.81 3.59 25.81 3.59l3.95 6.62h11.35l7.83-4.73 43.88 1.64s64.17-3.82 71.56-7.47 45.34-19.12 48.8-23.12 3.47-18.7 2.55-18.57c-20.35 2.71-155.82-6.57-155.82-6.57z" transform="translate(-415.5 -536.94)"/><path id="svg_bumper_front" class="active" d="M595 676.13a241.48 241.48 0 0 1-31.32 0l13.63-21.64c-5.34.37-9.67.65-12.11.81l-14.39 18.16s-1.15 3.94-12.14 6.07-61.91-5.83-66-7-7.53-9.47-7.53-9.47l3.73-15.22a21.16 21.16 0 0 1-4-2.94L461 664.48l-4.13-1-4.61-9-5.83 25 4.37 23.06-2.91 5.1s-.55 9.17 2.67 11.41 34.3 11.16 90.07 15.17 95.66 1.09 95.66 1.09 9-3.33 10.15-15.68A142.42 142.42 0 0 1 664.23 664s-24.76 1.46-30.83 4.37-22.21 6.63-38.4 7.76z" transform="translate(-415.5 -536.94)"/><path id="svg_windshield" class="active primitive selected" d="M596.74 550.19c-8.74 1.64-63.18 49.53-63.18 49.53l.09.24c21.47 1.44 133.89 8.78 152.32 6.32 12.93-8.19 21.53-42.45 29.86-51.89 2.73-3.11-110.35-5.84-119.09-4.2z" transform="translate(-415.5 -536.94)"/><path id="svg_top" class="active" d="M693.79 537.44c-74.84-.24-98.09 13.07-98.09 13.07a5.87 5.87 0 0 1 1-.32c8.74-1.64 121.82 1.09 119.08 4.19 0 0 14.38-18.21 54.81-11.29.04 0-8.86-5.43-76.8-5.65z" transform="translate(-415.5 -536.94)"/><path id="svg_fender_l_front" class="active" d="M701.62 603.48l-9.68-3.06a24 24 0 0 1-6 5.85c.92-.12.91 14.57-2.55 18.57S642 644.33 634.61 648a10.88 10.88 0 0 1-1.88.65s5.62-.65 6.43 1.08-4.85 18.27-4.85 18.27c6.56-2.4 25.54-3.72 29.27-4 0 0 8.39-11 16.55-11.69C708 650.05 702 699.68 702 699.68l6.9-3.68-1.46-70.65-5.83-12.75v-9.17z" transform="translate(-415.5 -536.94)"/><path id="svg_door_l_front_choice" class="choice" d="M767.29 605l-6.92-11.78-13.6-45.52s-18.45.49-26.46 12c-4.66 6.7-8.58 15-11.61 22.64l5.3 12.53s6.68-5.7 12.32-6.59c8.86-1.4 21.12 3.82 21.36 5.86a23.11 23.11 0 0 1-1.82 10.11c-1.52 3.22-31.5 4.73-31.5 4.73l-12.44 4.3 5.52 12.09L708.9 696l58.39-22.21c3.4-63.57 0-68.79 0-68.79z" transform="translate(-415.5 -536.94)"/><path id="svg_door_l_back_choice" class="choice" d="M801.77 567.49c-2.66-2.37-12.95-11.84-19.12-14.75-17.64-8.33-35.87-5-35.87-5l13.6 45.52 6.91 11.74s3.4 5.22 0 68.83l25.61-10.32S804 634 808 621.14s0-34.23 0-34.23-3.58-17.05-6.23-19.42z" transform="translate(-415.5 -536.94)"/><path id="svg_mirror_l" class="active" d="M747.69 594.16c-.24-2-12.5-7.25-21.36-5.86-5.64.89-12.32 6.59-12.32 6.59l-5.3-12.53a201 201 0 0 0-7.09 21.12v9.17l.3.66 12.44-4.3s30-1.52 31.5-4.73a23.11 23.11 0 0 0 1.83-10.12z" transform="translate(-415.5 -536.94)"/><path id="svg_fender_l_back" class="active" d="M836.36 601.6l-5.1-18.09s-.45-2.31-4.37-5.34-14.57-7.77-14.57-7.77l-12.62-11.9-11.9-7.16-7.92.19c.92.37 1.84.77 2.76 1.2 6.17 2.91 16.46 12.38 19.12 14.75s6.24 19.43 6.24 19.43 4 21.36 0 34.23-15.05 42.36-15.05 42.36l8-2.72s7.88-39.68 17.59-42.92c5.55-1.85 8.83 6.34 8.83 6.34l10.47-13.26a43.43 43.43 0 0 0-1.48-9.34z" transform="translate(-415.5 -536.94)"/><ellipse id="svg_disk2" class="active" cx="676.95" cy="702.23" rx="34.24" ry="17.31" transform="rotate(-85.35 177.952 659.085)"/><ellipse id="svg_disk1" class="active" cx="815.61" cy="652.81" rx="24.76" ry="9.79" transform="rotate(-85.35 316.63 609.668)"/></g><g id="da0bc72f-75ef-4d6e-89d6-450f498eeac3" data-name="2" class="467a9617-8b79-4042-979f-30fac36f1932"><path id="svg_boot" class="active" d="M888.89 596.93s-4.41 2-8.28 8c-5.6 8.75 2.1 43.5 2.22 45.37s3.22 9.2 7.11 9.56 95.4 12.4 98.06 9.14c10.21-12.36 14-43.73 26.36-56.56 0-.35 32.77-8.28 34.29-8.51.02 0-125-11.78-159.76-7z" transform="translate(-415.5 -536.94)"/><path id="svg_window_rear" class="active" d="M1048.39 603.9l40.34-44.9s-89.54-12.27-116.42-4.55c-13.09 3.76-64.38 41.34-64.38 41.34h-.05c46.38-.59 134.92 7.59 140.51 8.11z" transform="translate(-415.5 -536.94)"/><path id="svg_bumper_back" class="active" d="M1085.18 652.1s-26.59.82-36.5 4.9c-7.59 3.13-39.62 1.33-54.19.31A46.63 46.63 0 0 1 988 669c-2.69 3.26-94.19-8.74-98.08-9.1s-7-7.7-7.11-9.56c0-.27-.2-1.26-.48-2.77a21 21 0 0 1-2.56.2c-4 0-10.6-3.85-10.6-3.85l-3.5 20.29v14.93s-.82-.24-1.4 1.17 1.87 6.06 1.87 6.06 34.75 10.62 147.18 17.49c0 0 22.86 18.81 25.54 19.16s37.44-2.13 37.44-2.13 9.68-8.28 11.9-21.57 13.53-35.11 13.53-35.11z" transform="translate(-415.5 -536.94)"/><path id="svg_top1" class="active" d="M1088.73 542.35c-84.61-2.68-116.42 12.1-116.42 12.1 26.88-7.72 116.42 4.55 116.42 4.55s24.55-17.17 72-10.64c.02 0-16.29-4.24-72-6.01z" transform="translate(-415.5 -536.94)"/><path id="svg_fender_r_back" class="active" d="M1145.5 688.19s-15-58.54-30.18-70.94c-10.32-8.43-16.15-15.63-18.72-21.37s-5.11-10.18-4.32-12.42c1.27-3.64 14.38-21.57 14.38-21.57h-20.52l-37.75 42h.28c-1.52.23-34.29 8.16-34.29 8.51a43.94 43.94 0 0 0-7.63 12s45 1.63 46.82 3.7-4.24 28.64-4.24 28.64c10.37-3.86 35.84-4.65 35.84-4.65l16.56 12.13s6.92-13.49 17.87-12.77c16.88 1.11 16.18 39.54 16.18 39.54z" transform="translate(-415.5 -536.94)"/><path id="svg_door_r_back_choice" class="choice" d="M1170.55 598l-25.42-46.08s-14.6-.23-25.54 2.46c-7.11 1.75-12.92 7.52-12.92 7.52s-13.1 17.93-14.38 21.57c-.79 2.25 1.75 6.69 4.32 12.42s8.4 12.94 18.72 21.37c15.16 12.4 30.18 70.94 30.18 70.94l33.91-10.55.47-15.51s3.85-36.74 1-45.25-10.34-18.89-10.34-18.89z" transform="translate(-415.5 -536.94)"/><path id="svg_mirror_r" class="active" d="M1212.76 579.9c-2.27.52-4.29 3.32-4.29 3.32l-6.82-5.69 5.51 16.88 3.67 2s7.52-.44 9.53-.61 5.25-3.41 5.25-3.41 3.32-1.84 2.1-6.39-12.71-6.62-14.95-6.1z" transform="translate(-415.5 -536.94)"/><path id="svg_door_r_front_choice" class="choice" d="M1220.37 595.82c-2 .17-9.53.61-9.53.61l-3.67-2-5.51-16.88 6.82 5.69s.17-.23.45-.57a174.54 174.54 0 0 0-14.19-13.08c-25.69-21.46-49.62-17.68-49.62-17.68l25.43 46.09s7.58 10.38 10.38 18.89-1 45.25-1 45.25l-.47 15.51 45.13-15v-68.98l-.17-.12c-1.18.95-2.83 2.17-4.05 2.27z" transform="translate(-415.5 -536.94)"/><path id="svg_fender_r_front" class="active" d="M1254.4 612.68s-6.06-10.44-12.6-12.39-15.51-8.38-15.51-8.38a4.11 4.11 0 0 1-.67.51s-.52.52-1.27 1.15l.17.12v68.93l4.59-1.14s7.13-45.44 20.71-44.64c4.9.29 5.51 19.51 5.51 19.51l2.54-5.8z" transform="translate(-415.5 -536.94)"/><ellipse id="svg_disk3" class="active" cx="1112.27" cy="696.12" rx="32.6" ry="15.29" transform="rotate(-82.69 599.367 663.76)"/><ellipse id="svg_disk4" class="active" cx="1244.36" cy="651.46" rx="24.37" ry="9.46" transform="rotate(-85.01 743.698 609.66)"/></g></svg>