<svg id="Слой_3" xmlns="http://www.w3.org/2000/svg" viewBox="0 0 860 220"><style>.st0{fill:#020202}</style><path d="M273.2 21.3c-15.7 20.1-23.8 44.8-33.6 47.7-11.3 2.1-46.5.8-77.9-1.1l-1.9-1.7-30.2-.3c-12.1.6-25.6.3-34.6-1.1 23.9-18.9 46.7-34.9 64.7-43.3 35.8-2.6 74.5-2.5 113.5-.2z"/><path d="M49.7 111.2l-2.2-4.5c-.5-1-1.5-1.7-2.7-1.9-7.7-.9-14.9-1.7-21.1-2-.5 0-1 .2-1.2.7l-.5 1c-.3.5-.7.6-1 .3-1.3-1.1-2.4-2.6-3.3-4.3-.4-.8-.3-1.8.3-2.6 8.5-10.1 48-25.2 75.7-33.2 8.2 1 18.2 1.4 29.8 1.3l6.6-.1 29.8.3 1.9 1.7c29.1 1.5 54.5 2.6 76.5 1.8L237 80.1c-.2 3.7-2.7 6.8-6.1 8-17.8 3.3-34.6 9-50.4 17-.8.4-1.6.6-2.4.7l-57 4.2-9.2 1.8-3.1-3.2-37.1-1.4c-1.4-.1-2.8.3-4 .9l-7.7 4.1c-.9.5-1.9.7-2.9.7l-4.9-.2c-1.3-.1-2.1-.6-2.5-1.5z"/><path d="M119.1 111.8l-13.3 16.8c-.6.8-.4 1.9.5 2.4l1.8 1h28.7l42.8-6 25.3-2.5 6 .2c-10.3 11.9-13.8 27.9-19.5 51.5-1.1 4.5-2.5 8.8-4.7 12.2-1.2 1.8-3.1 2.8-5.3 2.9L127 192c-1.5 0-2.9-.1-4.4-.4l-7.9-1.9-24.1-1.5-51.5-5.9-1.8-1.8-24.4-4.5-.5-.1c-2.4-.3-4.5-1.6-5.9-3.6-2.2-3.1-2.5-6.6-.4-10.6v-13.5l-1.3-1.9c-.8-1.1-1.1-2.3-1.1-3.6l.7-15.7c.1-1.2.5-2.3 1.1-3.3l3.1-4.3 4.8 3.1c1.4-6.8 3.4-12.8 6.1-17.8l3.4 1.6-3.3 6.9c-3.6 7.5 1.3 16.2 9.6 17l48.5 4.6c8.4.8 16.7-2.7 22-9.3l10.8-13.5 8.6-.2z"/><path d="M105.8 129.3l13.4-16.8c.9-1.1 2.2-1.9 3.6-2.1 17.4-2.3 37.9-3.6 60-4.3 1.4-.1 2.4 1.3 1.9 2.7l-5.3 14.3c-.7 1.7-2.2 3-4 3.3l-36.7 6c-2.7.4-5.4.6-8.1.5l-21.6-.7c-.5 0-1-.2-1.4-.4l-1.6-.9c-.4-.4-.6-1.1-.2-1.6z"/><ellipse transform="rotate(-82.992 225.386 166.04)" cx="225.4" cy="166" rx="31.3" ry="17.8"/><path d="M266.4 50.9c-3.7 5.5-8.7 14-12.5 23.3l6.3-1v.1c.1.8.9 1.4 1.7 1.2 9.2-1.9 22.1-2.6 34.6-3.8 1-.1 2-.5 2.8-1.2 2.2-1.9 3.8-4.6 3.7-9.3 0-.9-.4-1.7-1.1-2.3-2.3-1.8-8.4-5.8-18-5.8-5.1 0-7.7 1.8-10.4 3.8-3.1 2.2-6.1 4.6-6.1 4.6.1-3.7-.2-6.8-1-9.6z"/><path d="M308.8 17.3c7.2 13.6 11.6 29.3 12.7 45.4l5.2 11.8c2 17 1.7 34.3-.5 51.9l.5 9.1-2 8.9-64.3 17.2 1.2-9.4-.2-7.4c1-21.7.4-41.9-2.6-59.4l-4.8-9.8 7.3-1c12.2-2 27.7-2.6 35.4-3.9 1.7-.3 2-.8 2.8-1.2 3.7-2.6 4.8-10.2 2.6-11.6 0 0-7.8-5.8-17.6-5.8-4.9 0-8.1 2-10.9 3.8-3.6 2.3-6.1 4.6-6.1 4.6.2-3.9-.1-7.1-.9-9.5-4.2 6.7-9.2 14.8-12.5 23.3l.6-7.2c4.2-9.8 17.1-33.7 23.7-39.9 9.1-8.8 15.8-10.3 30.4-9.9z"/><path d="M353.2 136c12.5-18 20-40.9 22.5-68.6l-2.8-9.7c-1-6.3-4-12-8.5-17.2-19.9-19.6-34.9-23.7-55.8-23.2 6.8 12.3 11.3 27.9 12.7 45.4l5.2 11.8c2.1 17 1.6 34.3-.5 51.9l.5 9.1-2 8.9 28.7-8.4zm-107-72.3l8.3 3.3-.8 8.5 4.8 9.8c2.9 13.2 3 35.5 2.6 59.4l.2 7.4-1.2 9.4-7.2 2.1c3.7-33.2-6.9-51.2-22.3-51-6.2.1-12.4 3.9-18.5 9.8l-33 3.2c2.3-6.2 4.4-12.5 5.5-17.5.2-1.1-.6-2.1-1.7-2.1h-3.8c12.1-7.9 30.7-13.8 51.2-17.8 3.3-.6 5.7-3.6 6.2-7l1.6-11.7c3.8-1.5 6.5-3.5 8.1-5.8zm27-42.4c13.3-8.6 23.7-7.9 44.3-7.8-40.8-7.2-141.7-1.2-157.9 8 29.4-2.5 76.1-2.3 113.6-.2z"/><ellipse transform="rotate(-86.402 379.605 131.222) scale(.99997)" cx="379.6" cy="131.2" rx="23.2" ry="9.3"/><path d="M595.8 66.7l-38.2 5.5c-3.9 6.5-8.2 13.7-12.8 21.3l-8.7 26-6.3 11c-32-1.6-61.2-4.6-86.5-9.3-4.5-7.5-6.8-19.5-7.2-35.5v-6.1c0-2.5.6-4.9 1.9-7l4.6-8.2c11.6-.9 22.8-2.4 33.5-4.7 35.7-1.5 74.1-.5 119.7 7z"/><path d="M430 107.9s-4 10.3-4.7 13.3c-.7 3.1 1.9 33.9 3.3 33.9 29.6 8.6 72.3 14 121.6 17.9 1.5.1 3 .6 4.3 1.5 4.9 3.2 9.7 7.2 14.6 11.6.6.6 1.5.9 2.3.9l54.9 1.4c1 0 1.9-.4 2.5-1.2 14.4-20.6 11-39.3 26.2-55.3-5.1-5.2-11.1-10.2-18.1-14.8l-43.6 1.8c-19.3 1-38.2 1-56.9 0l-6.5 11.6-86.5-9.3-6.1-12-7.3-1.3zm219.5-82.6c-22.9-7.1-81.2-7.1-102.1-3.3-23.3 9.3-47.1 22.2-71.2 37.7 36.3-1.7 77.2.3 123.2 6.2 17.5-14.1 32-29.3 50.1-40.6zm71-4.6C731.4 36 740 52.1 745.7 69l9.2 12.3c5.6 14.7 5.5 33.7 1.7 55.3l.7 8.3-2.7 9.7-38.2 6.5c-3.2.5-6.2-1.5-6.9-4.6l-3.1-13.9c-5.8-18.6-16.8-38.2-30.2-58.2l-11.4-11.3c-.8-.8-1.6-1.7-2.2-2.6L653 57c-2-2.9-1.8-6.9.6-9.5 3.8-4.2 9.7-10.5 14.9-15.9 6.7-7 15.9-10.9 25.6-10.9h26.4z"/><path d="M812.8 144.1l2.2-6.8v-5.6c4.3-17.6 5.2-34.4 1.1-49.9-2.5-4.1-5.2-7.4-8.1-9.8l-14.4-1c-1.4-7-3.9-14.4-6.9-21.9-20.3-18.3-41.2-28.1-66.3-28.4 10.6 15.1 19.5 31 25.2 48.3l9.2 12.3c5.6 14.6 5.6 33.5 1.7 55.3l.7 8.3-2.7 9.7 58.3-10.5z"/><ellipse transform="rotate(-83.886 669.51 170.017)" cx="669.5" cy="170" rx="30.6" ry="18"/><ellipse transform="matrix(.05607 -.9984 .9984 .05607 655.591 966.783)" cx="839.1" cy="136.7" rx="23.4" ry="8.5"/><path d="M788.2 53.2c2.5 6.2 4.4 12.1 5.5 17.8l13.6 1.1h1.6l3.4-.4c.8-.1 1.5-.5 2-1.2 1.6-2.2 2.7-4.6 3.2-7.3.2-1.5-.5-2.9-1.8-3.6l-5.3-2.9c-2-1.1-4.2-1.6-6.5-1.6H801c-1.1 0-2 .7-2.3 1.7l-.8 2.8c-3.2-3-6.4-5-9.7-6.4z"/><path d="M854.7 98.7l-3.7 2.2c-10.3-12.5-20.2 3.9-27.8 29.7-1.2 4-2.2 9.2-4.4 13.3l-5.4.3c5.6-24.4 7.9-46.6 2.8-62.2-2.7-4.2-5.4-7.6-8.1-9.8l3.4-.4c1.6-.2 3.1-1.2 3.8-2.7l.4-.9L849 85.3c3.5 4.2 5.4 8.7 5.7 13.4zM550.5 84.1l45.7 4.3c2.6.2 4.4 2.8 3.7 5.3l-6.6 25.1h-56.9l8.5-25.4 5.6-9.3zm99-58.8c11.5-7.5 31.2-9.8 52.8-11.1-67.4-3.8-124.9-3.7-154.1 7.6 34-4 67.8-3 101.3 3.5z"/><path d="M550.5 84.1l7.2-11.9 31.9-4.4c4-.5 7.7.1 10.7-2.6 17.5-15.1 33.7-28.9 49.3-39.8 1.9-1.4 11.2-8.3 45-10.6 9.4-.9 21.5.7 26.3 1.2 48.6 4.9 69 34.8 77.8 40.8l-.8 2.8S775 33.7 744.6 24.3c-11.3-3.5-23.3-3.5-34-3.5-18.4 0-23.6-.6-31.9 3.6-4 1.3-17 14.2-24.4 21.7-3 3.1-3.4 7.9-.9 11.5l10.4 14.7 12.5 12.4c17.3 25.5 29.4 49.3 32.8 70.2.6 4.8 3.2 6.7 7.3 6.5l96.4-17.1 6-.3-2.6 8.2c-15.8 1.2-73.4 14.5-121.6 25.1 21.2-41.5-15.1-75.5-39.5-45.2-5.9-5.9-12-10.9-18.1-14.8l-43.6 1.8 6.7-25.5c.6-2.3-1-4.7-3.4-4.9l-46.2-4.6zM253 163.7l-4.2 10.4 106.4-30.6c4.1-1.2 7.1-4.5 7.9-8.7 7.1-35.8 19.1-51.3 28.2-37.4l2.3-3.2v-6.7c1.9-1.7 6.1-3.4 10.3-5.1-1.3-6.3-3-11.7-5.6-15.2l1.1-4.5-3.7-5.1c-2.3-3.2-6-5-9.9-5h-2c-5.4-7.4-35.4-30.9-47-35.2-8.2-3.4-52.4-8.4-63.4 4.8-13.1 17.2-21.1 34.9-27.5 41.7l8.3 3.3c8.4-17.1 16.4-33.1 24.4-41.1 7.7-7 14.3-8.7 29.8-9.1 25.7.4 37.8 6.9 54.4 22.4 3.6 3.2 9.2 11.4 9.8 18.5l2.8 9.7c-2.1 28.7-11.2 52.7-22.5 68.6-32.7 9.3-66.1 18.6-99.9 27.5z"/><path class="st0" d="M404.1 82.3c-4.1 1.5-7.6 3.1-10.3 5.1v6.7l-2.3 3.2c5.1 9 3.8 19.7.8 30.9 1.7-1.6 3.3-3.2 4.8-4.8 5.3-5.4 8.2-12.6 8.4-20.2 0-7.7-.3-14.8-1.4-20.9z"/></svg>