<svg id="yeti" class="svg_yeti" xmlns="http://www.w3.org/2000/svg" data-name="Layer 1" viewBox="0 0 860 300"><defs><style>.svg_yeti{position:absolute;left:-1px}.active{fill:#f5f5f5;fill-opacity:.1;fill-rule:evenodd;stroke:#ccc;stroke-width:1px;stroke-linecap:butt;stroke-linejoin:round;stroke-opacity:1;cursor:pointer}.active.highlight,.active:hover,.selected{fill:#4ba82e;fill-opacity:.2}.selected{fill-opacity:.3!important}.blocked{fill:none;cursor:default}</style></defs><title>yeti</title><path class="blocked" d="M.5.5h860v300H.5z"/><g id="cc8cebe4-70a5-42f6-903c-1dd2b2136163" data-name="2"><path id="svg_boot" class="active" d="M946.41 510.74s-22.87 59-18.2 116.79c0 0 2.37 11.34 6.15 13.31 2.43 1.26 120.73 13.74 123.92 12s7.87.25 9.59-12.79 5.41-121.46 5.41-121.46l1.48-7.87c-81.14-4.41-128.35.02-128.35.02z" transform="translate(-467.62 -471.14)"/><path id="svg_bumper_back" class="active" d="M1091.11 642.53v-17.15l-22.21.7c-.38 6.76-.73 11.77-1 14-1.72 13-6.39 11.07-9.59 12.79s-121.49-10.75-123.92-12c-3.78-2-6.15-13.31-6.15-13.31-.33-4.08-.52-8.16-.59-12.23l-9.31-3.39a45.9 45.9 0 0 1 0 10.88c-.74 5.53-5.9 18.07-5.9 18.07l1.11 19.92 2.77 10s5.07 12 11.3 14.57 61.55 16.23 92.53 18.44 66.39 1.84 66.39 1.84 18.81-.74 25.45-7.19c8.72-8.48 17.52-51.64 23.79-57.35z" transform="translate(-467.62 -471.14)"/><path id="svg_fender_r_back" class="active" d="M1091.11 642.53l44.47-1.47s9.93-16.23 29.66-14.2l-2.58-8.85-3.87-9.77-4.43-19.92-7.19-11.81-38.73 4.39s11.25 13.5 2.58 29.36-19.92 15.12-19.92 15.12v17.15z" transform="translate(-467.62 -471.14)"/><path id="svg_door_r_back_choice" class="choice" d="M1222.41 632.57s-.62-33.87-2.7-43-9.1-17.83-9.1-17.83l-23.36-53.85c-7.81-2.4-57.54 0-57.54 0l17.46 58.64 7.19 11.81 4.43 19.92 3.87 9.77 2.58 8.85c-1.85-.19 2-1.66 8.11 7.38s3.79 35.9 3.79 35.9l39.36-12.6-.74-5.9z" transform="translate(-467.62 -471.14)"/><path id="svg_mirror_r" class="active" d="M1255 549.56c-1.78.4-4.36 3.6-4.36 3.6l-7.44-7.19 6.95 21 3-1s8.91 2.46 11.31 2.15 5.16-2.58 5-9.47-12.69-9.49-14.46-9.09z" transform="translate(-467.62 -471.14)"/><path id="svg_door_r_front_choice" class="choice" d="M1272.2 594.4c-.49-16-9.59-25.26-9.59-25.26l-.85-1.23c-3.52-.55-8.67-2-8.67-2l-3 1-6.95-21 7.44 7.19.37-.44c-1.75-2.42-3.52-4.82-5.17-7-7.19-9.53-25.26-27.85-25.26-27.85l-35-.36a12.61 12.61 0 0 1 1.69.36l23.36 53.85s7 8.67 9.1 17.83 2.7 43 2.7 43l-6.64 19.06.74 5.9 50.9-15s5.32-32.01 4.83-48.05z" transform="translate(-467.62 -471.14)"/><path id="svg_fender_r_front" class="active" d="M1299.12 586.66c-2-1.78-2.77-7.52-7.19-10.15s-25-8.39-25-8.39a10 10 0 0 0-2.58 0 11 11 0 0 1-2.64-.19l.85 1.23s9.1 9.22 9.59 25.26-4.79 48.13-4.79 48.13h4.06s7.62-45.86 20.78-49.06c9.21-2.25 11.19 7.14 11.19 7.14l1.84-1.84s-4.14-10.35-6.11-12.13z" transform="translate(-467.62 -471.14)"/><path id="svg_top" class="active" d="M1189.09 498.69a261.78 261.78 0 0 0-55.69-4.43s-40.37 2.37-44.63 3.2l-7.62 1.48-2.7-1a154.9 154.9 0 0 0-19.42-3.69c-9.34-1-79.79-.37-90 1.23s-15.74 6.64-15.74 6.64l-6.88 8.61s47.21-4.43 128.35 0l7.74.74 16.6-.74V508s25.08-2.7 42.85-2.58 53.29 2.46 53.29 2.46l11.37 3.93 3.38-.49s-9.99-10.54-20.9-12.63z" transform="translate(-467.62 -471.14)"/><ellipse id="svg_disk1" class="active" cx="1152.73" cy="692.26" rx="34.73" ry="16.84" transform="rotate(-85.82 665.483 708.22)"/><ellipse id="svg_disk2" class="active" cx="1290.45" cy="642.26" rx="26.73" ry="10.36" transform="rotate(-85.82 803.23 658.214)"/></g><g id="23b08297-b168-4357-a834-2c02cd860dee" data-name="1"><path id="svg_windshield" class="active primitive selected" d="M178.03 45.34l-58.39 57.9 160.29 8.41 20.97-63.51-122.87-2.8z"/><path id="svg_top1" class="active" d="M856.53 494.9c-5.49-1.58-31.94-2.68-46.93-1.22s-19.6 3.17-19.6 3.17l-25.48-.37s-15.36-3.86-24.74-3.78-33.16 0-48.76 2.19-31.69 14-31.69 14l-13.65 7.56 122.87 2.81s3.9-6.22 7.44-8.53c0 0 13.16-.24 15.36-1.46a4.35 4.35 0 0 0 2.32-3.29l65-2.8 7.31 1.83 2.07-.61s-6.05-7.91-11.52-9.5z" transform="translate(-467.62 -471.14)"/><path id="svg_bumper_front" class="active" d="M702.19 642.34s-49.66 4.57-54.6 3.84-8.78-8.59-8.78-8.59l10.77-15.87c-5.64 1.09-10.31 2-13 2.7a18.34 18.34 0 0 1-2.59 0c-3.27 5.23-7.5 11.95-10.39 16.23-5.3 7.86-16.09 10.42-16.09 10.42s-68-4.39-73.32-7.31-5.67-9.87-5.67-9.87l5-17.5-1.89-.24-3.17-2.68s-.25-.44-.62-1.16L524 628.08s-1.65 4.39-3.84 5.12-8.41-6.95-8.41-6.95l-4 6.95v13.53l-2.75 4.38c-2.19 7.68 3.66 25.6 3.66 25.6l8.59 12.62 5.3 6.22c27.61 9.51 111.72 14.26 111.72 14.26l71.49-6.22s14.44-51.93 21-63.26l-23.22.91z" transform="translate(-467.62 -471.14)"/><path id="svg_fender_l_front" class="active" d="M769.46 599.55a104 104 0 0 0-7-18.19l-14.87 1.43s2.76 7.86-.63 9.29c-16.09 6.77-46.3 20.42-46.3 20.42l8.78 4.14-5.85 24.59 23.22-.91s2.56-12.62 26.33-18.83 16.36 47.63 16.36 47.63l4.11-2.19c2.83-18.31-1.98-58.78-4.15-67.38z" transform="translate(-467.62 -471.14)"/><path id="svg_hood" class="active" d="M587.26 574.38l-29.07 11.82s-32.55 11.34-33.28 15.54 3.6 11.76 3.6 11.76l3.17 2.68 28.71 3.66 5.85 8.23h13.16l9.87-5.85s45.37 2.68 47.36 2.19c11.9-2.93 64-11.92 64-11.92s30.21-13.66 46.3-20.42c3.39-1.43.63-9.29.63-9.29z" transform="translate(-467.62 -471.14)"/><path id="svg_mirror_l" class="active" d="M801 555.4s-6.95-1.92-11.15-1.83-5.49.46-7.59 1.55-7.41 8.32-7.41 8.32l-3-15.08-2.16-3-12.19 36.48 4.94-.48 11.5-4.36 17.46-1.28s18-1.46 17.55-9.6S801 555.4 801 555.4z" transform="translate(-467.62 -471.14)"/><path id="svg_door_l_front_choice" class="choice" d="M830.44 578.16c-.73-6.95-6.58-15.91-6.58-15.91l-9.32-48.64-35.65 4.57-9.2 27.16 2.16 3 3 15.08s5.3-7.22 7.41-8.32 3.38-1.46 7.59-1.55S801 555.4 801 555.4s7.5 2.56 8 10.7-17.55 9.6-17.55 9.6l-17.51 1.3-11.52 4.39a104 104 0 0 1 7 18.19c2.16 8.59 7 49.06 4.11 67.38l53.21-21.12.91-8s2.57-14.81 2.74-23.4.78-29.33.05-36.28z" transform="translate(-467.62 -471.14)"/><path id="svg_door_l_back_choice" class="choice" d="M873.23 583.28l-2.07-19.69-2.41-9.75-14.08-43.06-40.13 2.83 9.32 48.64s5.85 9 6.58 15.91.18 27.61 0 36.2-2.74 23.4-2.74 23.4l-.91 8 32.91-9.87s8.17-38 17.31-42.66z" transform="translate(-467.62 -471.14)"/><path id="svg_fender_l_back" class="active" d="M889.32 585.53l-.49-13.9-1.52-9.57-5.79-11.06-12.72 3 2.36 9.55 2.07 19.69 3.78 10s1.22-2 8.11-2.13S895.78 613 895.78 613c.61-20.15-6.46-27.47-6.46-27.47z" transform="translate(-467.62 -471.14)"/><ellipse id="svg_disk3" class="active" cx="745.37" cy="687.86" rx="34.13" ry="16.64" transform="rotate(-84.3 251.366 710.604)"/><ellipse id="svg_disk4" class="active" cx="879.17" cy="638.12" rx="25.75" ry="10.21" transform="rotate(-84.31 385.095 660.82)"/></g></svg>