<svg xmlns="http://www.w3.org/2000/svg" width="512" height="512" viewBox="0 0 512 512"><title>fabia</title><path fill="none" d="M.298 190.809h512v130.977h-512z"/><path d="M88.12 198.681c-14.966 9.787-36.229 31.009-36.137 31.67.092.661 89.607 3.838 90.137 3.512.526-.327 19.493-34.573 19.493-35.182-.001-.609-69.272-2.761-73.493 0z"/><path fill="#4BA82E" fill-opacity=".3" d="M51.982 230.351c-.009-.059.161-.291.48-.661-5.845 2.056-22.999 8.584-41.408 20.232-1.381.875 0 6.963 0 6.963l19.002 2.618s1.462 4.141 4.547 4.387c3.085.243 6.659-3.491 6.659-3.491l32.707-.49s6.944-6.759 35.629-9.5c0 0 19.002-3.979 29.6-11.327l2.803-4.629.118-.59c-5.953.113-90.048-2.874-90.137-3.512z"/><path d="M10.44 269.291c.27-.039.406-8.448.461-13.149l.002.011c-.292-1.521-.842-4.968-.065-6.022l-.398-.727-4.233 3.82-2.083 5.655-.257 5.66c.365 0 3.251 5.207 6.573 4.752zm148.736 22.533s-.889-41.138-3.655-48.237l-3.654-9.377-9.748-.347-.118.59-2.803 4.629c-10.597 7.348-29.6 11.327-29.6 11.327l7.065 2.559-5.017 10.884c2.937.266 15.673 7.388 15.673 7.388s3.839-10.593 16.386-8.646c12.547 1.944 11.572 29.96 11.572 29.96l3.899-.73z"/><path d="M65.991 272.212c-.081.627 22.291 3.533 45.191-8.311.109-.056.287-.065.513-.042-.016 0-.034-.004-.048-.007l5.017-10.884-7.065-2.559c-22.889 2.187-31.929 6.929-34.65 8.759-3.328 2.989-8.336 8.212-8.958 13.044zm104.229-80.515c-73.883-1.407-81.74 5.912-82.563 7.291l.463-.306c4.067-2.659 68.474-.762 73.207-.073 20.136-3.808 61.676.063 65.332 2.225-.001-.001 1.095-8.042-56.439-9.137zm1.35 28.228c-8.916-.363-10.567 4.174-10.567 4.174l-1.6-6.409-7.536 16.52 8.587-.347 1.462-1.785 6.942.73s12.884 1.228 12.913-5.757c.02-4.903-4.394-6.887-10.201-7.126z"/><path d="M250.654 243.79c-1.979-9.031-5.358-12.141-5.968-13.481-.608-1.338.895-3.369.895-3.369l-4.021-3.897c-3.736-8.284-14.902-22.21-14.902-22.21l-.919-.364c-1.221-.374-3.702-.809-2.726-.628l11.685 25.393 3.898 5.037c.957 6.428-3.116 21.59-7.269 33.706 3.144-4.74 7.29-9.625 11.167-9.915 4.037-.302 5.969 4.915 5.969 4.915s2.271-14.82 2.191-15.187z"/><ellipse cx="138.827" cy="294.651" rx="10.875" ry="19.052"/><path d="M248.77 280.308c0 9.018-3.698 16.327-8.26 16.327s-8.261-7.31-8.261-16.327c0-9.021 3.699-16.331 8.261-16.331s8.26 7.31 8.26 16.331zm-168.241 6.826l-2.902 11.535s28.875.223 34.233-13.171l-31.331 1.636zm-75.165-4.687l-.794-.301-.843 5.708 5.159 5.805z"/><path d="M111.182 263.901c-22.9 11.844-45.272 8.938-45.191 8.311.623-4.833 5.633-10.059 8.962-13.048-.697.467-.984.745-.984.745l-5.602.083c-5.476 9.92-12.609 14.049-12.609 14.049s-13.865.171-23.997-.366c-9.948-.528-18.394-3.045-18.394-3.045l.838-13.311-3.152-.434s-.064-.286-.153-.744c-.055 4.701-.191 13.11-.461 13.149-3.322.455-6.208-4.752-6.573-4.752-.365 0-3.341 10.291-1.583 14.739.956 2.417 1.827 2.192 1.827 2.192s-2.314 10.354 0 14.495c2.315 4.142 80.639 6.214 80.639 6.214s2.558 1.462 5.725 2.438c3.167.972 27.286-1.098 27.286-1.098s3.651-24.362 9.56-32.279c0 .001-14.572-8.148-16.138-7.338zM3.727 287.854l.843-5.707.794.301 3.522 11.212-5.159-5.806zm73.9 10.815l2.902-11.535 31.332-1.636c-5.359 13.394-34.234 13.171-34.234 13.171zm93.943-78.744c5.807.239 10.221 2.223 10.202 7.126-.006 1.306-.46 2.325-1.196 3.118 7.472-.763 14.518-1.496 18.714-1.936l-8.121-31.131c-7.842-.215-15.823-.108-22.613.528l-9.152 20.06 1.6 6.409c-.001 0 1.65-4.537 10.566-4.174zm-11.963 68.624l-.622-3.508c.132 4.105.191 6.783.191 6.783l1.501-.243-1.07-3.032z"/><path d="M201.728 281.349s2.129-36.624 0-46.451l-2.437-6.658-.002-.007c-4.196.44-11.242 1.173-18.714 1.936-3.199 3.45-11.717 2.639-11.717 2.639l-6.942-.73-1.462 1.785-8.587.347 3.654 9.377c2.062 5.289 3.079 29.465 3.464 41.454l.622 3.508 1.07 3.032 41.537-6.74-.486-3.492zm-10.56-84.247l-.133-.003c.045 0 .09.003.133.003zm-.133-.003zm32.532 27.744l4.316-5.062-6.848-18.949.166-1.302c-6.628-1.054-18.169-2.108-30.032-2.429l8.12 31.131 24.278-3.389z"/><path d="M238.596 230.271l-3.898-5.037-11.685-25.393a86.704 86.704 0 0 0-1.812-.311l-.166 1.302 6.848 18.949-4.316 5.062-24.278 3.39.002.007 2.437 6.658c2.129 9.827 0 46.451 0 46.451l.487 3.492s19.369-3.327 21.602-3.652c2.232-.327 16.484-39.468 14.779-50.918zm56.397-31.654l-.245 3.491c-11.854 11.206-19.812 23.628-19.812 23.628s-5.846 4.245-6.739 5.707c-.895 1.461-.567 17.351.406 25.635.974 8.283 5.277 8.12 5.277 8.12s15.366 1.382 25.902 2.03c10.555.649 34.67 1.218 34.67 1.218s2.852-1.997 3.816-8.445l2.029-13.56s6.72-12.238 17.113-14.998c0 0 10.752-28.726 8.789-34.613-1.215-3.654-67.634-3.167-71.206 1.787z"/><path d="M363.116 254.399c-4.695 4.362-19.788 5.579-24.894 5.871-1.005 6.229-3.77 8.177-3.77 8.177s-24.115-.568-34.67-1.218c-10.536-.648-25.902-2.03-25.902-2.03s-4.304.163-5.277-8.12c-.025-.219-.052-.447-.075-.675-.75.235-1.547.358-2.281.215-2.356-.46-4.79-2.951-4.79-2.951l.081 9.663-1.868 4.304s-.647 7.958 1.706 14.128c2.353 6.17 8.321 10.944 9.58 11.367 11.369 3.817 85.746 7.716 89.278 5.522s6.21-6.536 6.21-6.536c4.63-17.661 11.369-22.249 11.369-22.249.609-1.989-14.697-15.468-14.697-15.468z"/><path d="M266.247 256.618c.734.144 1.531.021 2.281-.215-.901-8.314-1.191-23.081-.367-24.877l-.488-.721-2.296 2.876-2.381 6.945-1.449 13.131c.453.443 2.605 2.452 4.7 2.861zm118.484-63.563c-15.374-.559-28.762-.517-40.077-.167l-1.369-1.695h-2.834l-.093 1.846c-19.384.767-32.03 2.411-37.44 3.242 18.469-2.653 62.296-2.413 63.283.549.344 1.033.297 2.768-.016 4.926.003 0 10.254-3.951 78.21-1.028.001 0-4.406-5.664-59.664-7.673z"/><path d="M386.664 235.806s-1.95-1.707-3.654-5.604c-1.706-3.897-3.328-24.358-6.004-29.879-8.693.615-10.817 1.433-10.82 1.433-1.462 10.152-8.773 29.687-8.773 29.687l15.043 4.361-9.339 18.594s15.306 13.479 14.697 15.467c0 0 2.761-4.505 12.261-6.129 9.5-1.626 14.046 14.777 14.046 14.777l1.177 12.225 4.426-.37-6.657-22.652-16.403-31.91z"/><path d="M372.455 235.805l-15.043-4.361c-10.394 2.76-17.113 14.998-17.113 14.998l-2.029 13.56c-.016.101-.035.191-.05.29 0-.008.002-.014.003-.021 5.105-.292 20.198-1.509 24.894-5.871l9.338-18.595zm99.87-13.692c-2.952-.214-4.048 1.796-4.048 1.796l-4.6-2.466 2.649 11.844h3.015l.639-.762s3.581.247 5.604 0c2.01-.243 4.842 0 4.567-4.566-.164-2.738-4.872-5.633-7.826-5.846zm35.077 32.854c-2.841-4.547-4.546-8.932-4.546-8.932-9.907-4.872-24.196-13.316-24.196-13.316s-.59 1.035-1.624 1.3c-1.036.262-1.559-.113-1.559-.113l.34.437 4.629 7.957s3.816 18.269-1.788 42.304l3.057.163s3.522-28.908 16.433-28.908c12.909.001 8.201 29.557 8.201 29.557l2.76-4.305c-.001.001 1.136-21.596-1.707-26.144z"/><ellipse cx="387.342" cy="294.949" rx="11.413" ry="19.05"/><ellipse cx="495.36" cy="282.687" rx="8.409" ry="16.462"/><path d="M386.422 220.984l3.645 5.06 3.499 2.604 4.017 1.265 36.04 1.437-.189-.336-11.454-31.068c-21.217-.546-34.581-.252-42.889.244l7.331 20.794z"/><path d="M433.622 231.349l-36.04-1.437-4.017-1.265-3.499-2.604-3.645-5.06-7.332-20.795c-.733.044-1.43.088-2.084.135 2.676 5.521 4.298 25.982 6.004 29.879 1.704 3.897 3.654 5.604 3.654 5.604l16.401 31.911 6.657 22.652 29.8-2.844-.162-3.248s-.325-2.355.893-18.432c1.219-16.076-2.68-27.525-2.68-27.525l-3.95-6.971zm.125.219l41.729 2.338-1.01-1.296c-2 .085-4.486-.085-4.486-.085l-.639.762h-3.015l-2.649-11.844 3.276 1.757c-3.864-4.244-15.216-16.117-26.951-22.655 0 0-12.555-.459-18.024-.601l11.454 31.068.315.556z"/><path d="M475.817 234.344l-.341-.437-41.729-2.338 3.826 6.752s3.898 11.449 2.68 27.525-.893 18.432-.893 18.432l.162 3.248 39.136-2.921c5.604-24.035 1.788-42.304 1.788-42.304l-4.629-7.957z"/></svg>